<?xml version="1.0" encoding="utf-8"?>
<!-- Svg Vector Icons : http://www.onlinewebfonts.com/icon -->
<!DOCTYPE svg PUBLIC "-//W3C//DTD SVG 1.1//EN" "http://www.w3.org/Graphics/SVG/1.1/DTD/svg11.dtd">
<svg version="1.1" xmlns="http://www.w3.org/2000/svg" xmlns:xlink="http://www.w3.org/1999/xlink" x="0px" y="0px" viewBox="0 0 1000 1000" enable-background="new 0 0 1000 1000" xml:space="preserve">
<metadata> Svg Vector Icons : http://www.onlinewebfonts.com/icon </metadata>
<g fill="#fff"><path d="M269.9,777.6c-30.5,0-61,0-91.6,0c-5,0-10,0-15,0c-3.1,0-6.3-0.1-9.4-0.3c-1.7-0.1-3.4-0.3-5.1-0.5c-6.3-0.6,7.4,1.1,1.2,0.1c-3.8-0.6-7.6-1.5-11.3-2.4c-3.2-0.8-6.3-1.8-9.4-2.9c-1.5-0.5-3.1-1.1-4.6-1.7c8.5,3.3,2.9,1.2,1.1,0.4c-6.4-2.9-12.4-6.4-18.1-10.4c-1.3-0.9-2.6-1.9-3.9-2.8c7.2,5.3,2.5,1.9,0.9,0.6c-2.5-2-4.8-4.2-7.1-6.4c-2.3-2.2-4.5-4.6-6.6-7c-1.1-1.2-2.1-2.4-3.1-3.7c-3.3-4,4.4,6-0.2-0.4c-3.8-5.2-7-10.8-9.9-16.5c-0.7-1.4-1.4-2.9-2.1-4.4c-2.5-5.5,2.7,6.7,0.5,1c-1.4-3.6-2.5-7.2-3.6-10.9c-0.9-3.2-1.6-6.4-2.3-9.6c-0.3-1.6-0.6-3.3-0.9-4.9c1.5,9.3,0.4,3.2,0.2,1.2c-0.4-4-0.6-8-0.6-12.1c0-3.7,0-7.5,0-11.2c0-22.3,0-44.7,0-67c0-75.9,0-151.9,0-227.8c0-64,0-128.1,0-192.1c0-6.6,0-13.2,0-19.8c0-1.2,0-2.4,0-3.6c0-2.9,0.1-5.8,0.3-8.7c0.1-1.7,0.3-3.4,0.5-5.1c0.6-6.3-1.1,7.4-0.1,1.2c0.6-3.8,1.5-7.6,2.4-11.3c0.8-3.2,1.8-6.3,2.9-9.4c0.5-1.5,1.1-3.1,1.7-4.6c-3.3,8.5-1.2,2.9-0.4,1.1c2.9-6.4,6.4-12.4,10.4-18.1c0.9-1.3,1.9-2.6,2.8-3.9c-5.3,7.2-1.9,2.5-0.6,0.9c2-2.5,4.2-4.8,6.4-7.1c2.2-2.3,4.6-4.5,7-6.6c1.2-1.1,2.4-2.1,3.7-3.1c4-3.3-6,4.4,0.4-0.2c5.2-3.8,10.8-7,16.5-9.9c1.4-0.7,2.9-1.4,4.4-2.1c5.5-2.5-6.7,2.7-1,0.5c3.6-1.4,7.2-2.5,10.9-3.6c3.2-0.9,6.4-1.6,9.6-2.3c1.6-0.3,3.3-0.6,4.9-0.9c-9.3,1.5-3.2,0.4-1.2,0.2c4-0.4,8-0.6,12-0.6c35,0,70,0,105,0c74.7,0,149.3,0,224,0c76,0,152,0,228,0c39,0,78,0,117,0c3.2,0,6.5,0.1,9.7,0.3c1.7,0.1,3.4,0.3,5.1,0.5c6.3,0.6-7.4-1.1-1.2-0.1c3.3,0.5,6.5,1.2,9.7,2c3.2,0.8,6.3,1.7,9.4,2.8c1.5,0.5,3.1,1.1,4.6,1.7c4.9,1.8-6.9-3.1,0.4,0.2c5.9,2.7,11.5,5.9,16.8,9.5c1.3,0.9,2.6,1.8,3.9,2.8c4.9,3.5-5.6-4.5-0.9-0.7c2.9,2.3,5.7,4.8,8.4,7.4c2.3,2.2,4.5,4.6,6.6,7c1.1,1.2,2.1,2.4,3.1,3.7c3.8,4.6-4.3-5.7-0.7-0.9c4.1,5.6,7.7,11.6,10.8,17.8c0.7,1.4,1.4,2.9,2.1,4.4c2.5,5.5-2.7-6.7-0.5-1c1.2,3,2.2,6.2,3.1,9.3c1,3.2,1.7,6.4,2.4,9.6c0.3,1.6,0.6,3.3,0.9,4.9c0.9,5.3-0.8-7.8,0,0.5c0.5,4.4,0.6,8.8,0.6,13.1c0,5.1,0,10.2,0,15.3c0,60.8,0,121.6,0,182.4c0,77.2,0,154.4,0,231.6c0,24.6,0,49.3,0,73.9c0,5.3,0,10.6,0,16c0,3.4-0.1,6.7-0.3,10.1c-0.1,1.7-0.3,3.4-0.5,5.1c-0.6,6.3,1.1-7.4,0.1-1.2c-0.5,3.3-1.2,6.5-2,9.7c-0.8,3.2-1.7,6.3-2.8,9.4c-0.5,1.5-1.1,3.1-1.7,4.6c-1.8,4.9,3.1-6.9-0.2,0.4c-2.7,5.9-5.9,11.5-9.5,16.8c-0.9,1.3-1.8,2.6-2.8,3.9c-3.5,4.9,4.4-5.6,0.7-0.9c-2.3,2.9-4.9,5.7-7.4,8.4c-2.2,2.3-4.6,4.5-7,6.6c-1.2,1.1-2.4,2.1-3.7,3.1c-4.6,3.8,5.7-4.3,0.9-0.7c-5.6,4.1-11.6,7.7-17.8,10.8c-1.4,0.7-2.9,1.4-4.4,2.1c-5.5,2.5,6.7-2.7,1-0.5c-3,1.2-6.2,2.2-9.3,3.1c-3.2,1-6.4,1.7-9.6,2.4c-1.6,0.4-3.3,0.6-4.9,0.9c-5.3,0.9,7.8-0.8-0.5,0c-4.8,0.5-9.5,0.6-14.3,0.6c-26.1,0-52.2,0-78.3,0c-60.1,0-120.1,0-180.2,0c-14.7,0-23.6,11.4-33,20.8c-11.1,11.1-22.2,22.2-33.4,33.4c-27.2,27.2-54.4,54.4-81.6,81.6c-8.8,8.8-17.5,17.5-26.3,26.3c-11.4,11.4-11.4,30.3,0,41.7c11.4,11.4,30.3,11.4,41.7,0c43.3-43.3,86.6-86.5,129.8-129.8c7.9-7.9,15.8-15.8,23.7-23.7c-6.9,2.9-13.9,5.8-20.8,8.6c59.7,0,119.4,0,179.1,0c26.4,0,52.8,0,79.2,0c54.2,0,104-27,132.7-73.1c17.3-27.7,22.2-59,22.2-90.9c0-22.5,0-45,0-67.5c0-76,0-152,0-228.1c0-63.8,0-127.6,0-191.4c0-20.6,0.2-40.6-4.7-60.9C978,95,960.4,66.9,937.1,47.3c-26-22-57-34.2-90.8-36.8c-11-0.8-22.3-0.3-33.3-0.3c-23.5,0-46.9,0-70.4,0c-73.5,0-147,0-220.5,0c-76.9,0-153.9,0-230.8,0c-42,0-84.1,0-126.1,0c-44.8,0-88.8,18.3-118,52.8c-22,26-34.2,57-36.8,90.8c-0.4,5.3-0.3,10.7-0.3,16c0,54.8,0,109.6,0,164.3c0,78.6,0,157.1,0,235.7c0,28.1,0,56.2,0,84.3c0,13.9-0.7,28.1,0.6,42c5.8,65.2,52.7,121.6,117.1,136.3c17.1,3.9,34.1,4,51.4,4c19.1,0,38.2,0,57.2,0c11.1,0,22.3,0,33.4,0c16.1,0,29.5-13.4,29.5-29.5C299.3,791,285.9,777.6,269.9,777.6L269.9,777.6z"/><path d="M269.9,299.4c44.3,0,88.7,0,133,0c78,0,156,0,234,0c31.1,0,62.3,0,93.4,0c16.1,0,29.5-13.4,29.5-29.5s-13.4-29.5-29.5-29.5c-44.3,0-88.7,0-133,0c-78,0-156,0-234,0c-31.1,0-62.3,0-93.4,0c-16.1,0-29.5,13.4-29.5,29.5S253.8,299.4,269.9,299.4L269.9,299.4z"/><path d="M269.9,529.6c44.3,0,88.7,0,133,0c78,0,156,0,234,0c31.1,0,62.3,0,93.4,0c16.1,0,29.5-13.4,29.5-29.5c0-16.1-13.4-29.5-29.5-29.5c-44.3,0-88.7,0-133,0c-78,0-156,0-234,0c-31.1,0-62.3,0-93.4,0c-16.1,0-29.5,13.4-29.5,29.5C240.4,516.2,253.8,529.6,269.9,529.6L269.9,529.6z"/></g>
</svg>