<?xml version="1.0" standalone="no"?>
<!DOCTYPE svg PUBLIC "-//W3C//DTD SVG 1.1//EN" "http://www.w3.org/Graphics/SVG/1.1/DTD/svg11.dtd" >
<svg xmlns="http://www.w3.org/2000/svg" xmlns:xlink="http://www.w3.org/1999/xlink" version="1.1">
<metadata></metadata>
<defs>
<font id="futurabold" horiz-adv-x="1392" >
<font-face units-per-em="2048" ascent="1638" descent="-410" />
<missing-glyph horiz-adv-x="696" />
<glyph horiz-adv-x="1024" />
<glyph horiz-adv-x="1024" />
<glyph unicode="&#xd;" horiz-adv-x="1024" />
<glyph unicode=" "  horiz-adv-x="696" />
<glyph unicode="&#x09;" horiz-adv-x="696" />
<glyph unicode="&#xa0;" horiz-adv-x="696" />
<glyph unicode="!" horiz-adv-x="788" d="M154 197q0 49 18 93t51 76.5t77 51t93 18.5t93 -18.5t77 -51t51.5 -76.5t18.5 -93t-18.5 -93.5t-51.5 -77t-77 -51t-93 -18.5t-93 18.5t-77 51t-51 77t-18 93.5zM201 524v1020h385v-1020h-385z" />
<glyph unicode="&#x22;" horiz-adv-x="950" d="M94 1544h332l-57 -620h-219zM526 1544h330l-55 -620h-219z" />
<glyph unicode="#" d="M37 424v266h246l24 197h-209v264h244l51 393h301l-51 -393h199l53 393h303l-51 -393h209v-264h-242l-27 -197h213v-266h-245l-56 -424h-305l56 424h-199l-55 -424h-303l57 424h-213zM584 690h198l27 197h-199z" />
<glyph unicode="$" d="M133 178l166 309q193 -170 375 -170q76 0 132 41t56 107q0 90 -133 133l-117 37q-104 33 -178 71.5t-121 90t-69.5 116t-22.5 148.5q0 88 25.5 170t78 146.5t130 108.5t184.5 54v248h188v-248q221 -23 373 -119l-151 -295q-131 100 -258 101q-78 0 -127.5 -36t-49.5 -81 q0 -41 39 -78t103 -59l121 -41q203 -70 293 -171.5t90 -262.5q0 -98 -23 -174t-74 -135.5t-134 -104.5t-202 -82v-254h-188v244q-63 0 -135 15.5t-141.5 41t-130 59t-99.5 70.5z" />
<glyph unicode="%" horiz-adv-x="2074" d="M78 1190q0 86 31.5 155.5t89 116.5t136.5 73t175 26q88 0 164 -28t131 -77t86 -117.5t31 -150.5q0 -88 -32 -159t-88.5 -121t-135 -76.5t-172.5 -26.5q-190 0 -303 103.5t-113 281.5zM326 1186q0 -70 49 -123t125 -53q35 0 66.5 14t55 37.5t38 55.5t14.5 67 q0 37 -14.5 68.5t-39 55t-56.5 37t-64 13.5q-70 0 -122 -50t-52 -122zM487 0l897 1544h199l-895 -1544h-201zM1151 367q0 86 31.5 154.5t88 116.5t136.5 73.5t176 25.5q92 0 168 -27.5t130 -77.5t85 -119t31 -148q0 -86 -31 -157t-87 -121t-135 -77.5t-175 -27.5 q-94 0 -171 26.5t-132.5 76.5t-85 122t-29.5 160zM1401 362q0 -74 50 -125t124 -51q72 0 123 51.5t51 122.5q0 37 -14.5 69t-39 55.5t-56 37t-64.5 13.5q-68 0 -121 -49.5t-53 -123.5z" />
<glyph unicode="&#x26;" horiz-adv-x="1751" d="M92 399q0 86 23.5 152.5t81.5 128.5q43 47 95 81t128 68l43 21l-27 31q-119 150 -119 284q0 90 37 168t101.5 134.5t152.5 88t191 31.5q104 0 192 -31.5t152.5 -89t100.5 -134.5t36 -167q0 -61 -14.5 -111t-48 -94.5t-88 -84t-134.5 -80.5l195 -205q123 117 201 221 l227 -219q-35 -47 -79 -95t-101 -102l-31 -28l344 -367h-500l-135 141q-276 -184 -530 -184q-109 0 -199 33t-155.5 92t-102.5 140t-37 177zM508 465q0 -33 14.5 -60.5t39 -47t56 -31t68.5 -11.5q102 0 211 68l-244 262q-145 -90 -145 -180zM698 1186q0 -74 121 -205 q143 86 144 193q0 57 -38 99t-98 42q-55 0 -92 -37t-37 -92z" />
<glyph unicode="'" horiz-adv-x="518" d="M94 1544h330l-55 -620h-219z" />
<glyph unicode="(" horiz-adv-x="782" d="M154 690q0 147 19.5 295t56 287t92 263t129.5 226l223 -127q-236 -401 -236 -958q0 -135 17.5 -273.5t48.5 -265.5t74 -236.5t96 -191.5l-223 -127q-143 209 -220 491.5t-77 616.5z" />
<glyph unicode=")" horiz-adv-x="782" d="M109 -291q236 406 235 959q0 131 -17.5 269t-49 267t-74.5 239.5t-94 190.5l223 127q143 -209 220 -490.5t77 -619.5q0 -147 -19.5 -294.5t-57.5 -285t-93.5 -262t-126.5 -227.5z" />
<glyph unicode="*" d="M330 1366l55 172l254 -121l-35 283h184l-36 -281l256 119l57 -172l-279 -53l195 -205l-150 -109l-135 248l-135 -248l-147 109l192 205z" />
<glyph unicode="+" d="M147 641v262h418v418h262v-418h416v-262h-416v-418h-262v418h-418z" />
<glyph unicode="," horiz-adv-x="696" d="M-25 -287l267 678h348l-377 -678h-238z" />
<glyph unicode="-" horiz-adv-x="587" d="M0 393v309h588v-309h-588z" />
<glyph unicode="." horiz-adv-x="696" d="M109 197q0 49 18 93t51 76.5t77 51t93 18.5t93 -18.5t77 -51t51.5 -76.5t18.5 -93t-18.5 -93.5t-51.5 -77t-77 -51t-93 -18.5t-93 18.5t-77 51t-51 77t-18 93.5z" />
<glyph unicode="/" horiz-adv-x="1146" d="M-2 -354l842 2054h293l-844 -2054h-291z" />
<glyph unicode="0" d="M41 774q0 184 48 335t135 257.5t207 164.5t265 58q143 0 264 -58t207 -164.5t134.5 -257.5t48.5 -335t-48.5 -334.5t-134.5 -258t-206.5 -166t-264.5 -58.5q-145 0 -265 58.5t-207 166t-135 258t-48 334.5zM438 774q0 -102 18.5 -186t52.5 -145.5t81 -95.5t106 -34 q57 0 105.5 34t81 95.5t51 145.5t18.5 186q0 100 -18.5 185t-51 145.5t-80.5 94.5t-106 34q-59 0 -106 -34t-81 -94.5t-52.5 -145.5t-18.5 -185z" />
<glyph unicode="1" d="M317 1204v340h627v-1544h-401v1204h-226z" />
<glyph unicode="2" d="M57 0l383 397q152 158 238 267.5t128 185.5t52 123t10 80q0 35 -11 67.5t-33.5 58t-54.5 41t-75 15.5q-82 0 -128 -53.5t-46 -132.5q0 -23 6 -66h-438q0 135 44 245.5t124 190.5t189.5 123t240.5 43q129 0 238.5 -41t189.5 -114.5t125 -175t45 -220.5q0 -127 -54 -234.5 t-173 -219.5l-256 -240h499v-340h-1243z" />
<glyph unicode="3" d="M68 520h397q4 -109 63.5 -165t159.5 -56q106 0 155.5 57.5t49.5 141.5q0 100 -59.5 151t-141.5 51q-20 0 -38.5 -3t-41.5 -7v252q16 -2 27.5 -2h19.5q76 0 123 45t47 117q0 70 -44 112.5t-113 42.5q-74 0 -119 -49t-45 -127h-371q14 121 60.5 215.5t118 159t168 98 t212.5 33.5q115 0 208 -31.5t159.5 -90t102.5 -141.5t36 -185q0 -111 -42 -181.5t-120 -121.5q119 -37 185.5 -132.5t66.5 -234.5q0 -115 -45 -209t-126 -161.5t-192.5 -104.5t-244.5 -37q-178 0 -321.5 69.5t-229.5 221.5q-39 68 -52 135.5t-13 136.5z" />
<glyph unicode="4" d="M29 317v258l589 969h529v-919h186v-308h-186v-317h-373v317h-745zM420 625h354v608z" />
<glyph unicode="5" d="M109 94l59 377q102 -88 208.5 -134t203.5 -46q123 0 194.5 66.5t71.5 164.5q0 115 -96.5 185.5t-251.5 70.5q-70 0 -143.5 -15t-145.5 -48l129 829h809v-340h-535l-26 -170q37 4 67.5 7t63.5 3q117 0 217 -40.5t172 -112.5t113 -172.5t41 -218.5q0 -125 -46.5 -225.5 t-130.5 -171t-204.5 -108.5t-268.5 -38q-139 0 -265 34t-236 103z" />
<glyph unicode="6" d="M43 526q0 131 58.5 284t179.5 300l358 434h465l-438 -504h8q57 35 94 42.5t66 7.5q113 0 207 -43t163.5 -118t108.5 -175.5t39 -214.5q0 -123 -45 -228.5t-130 -184.5t-206 -124t-273 -45q-154 0 -274.5 45t-205.5 123t-130 181.5t-45 219.5zM440 530q0 -53 20.5 -99 t55.5 -81t81 -55.5t99 -20.5t99.5 20.5t81 55.5t55 81t20.5 99t-20.5 99.5t-55 81t-80.5 55t-100 20.5q-53 0 -99 -20.5t-81 -55t-55.5 -81t-20.5 -99.5z" />
<glyph unicode="7" d="M104 0l705 1204h-645v340h1268l-885 -1544h-443z" />
<glyph unicode="8" d="M106 418q1 280 306 397q-242 100 -242 340q0 98 39 177t107.5 136.5t166 88t213.5 30.5q117 0 214.5 -30.5t166 -88t107.5 -136.5t39 -177q0 -61 -12.5 -109.5t-42 -88t-78 -74.5t-119.5 -68q315 -123 315 -397q0 -98 -44 -182t-123 -145.5t-186.5 -96.5t-236.5 -35 q-125 0 -232.5 34t-187 95.5t-125 145t-45.5 184.5zM512 467q0 -39 14.5 -74t39 -60.5t58 -41t72.5 -15.5q37 0 71 15.5t59.5 41t40 59.5t14.5 73q0 78 -54.5 132t-130.5 54q-78 0 -131 -54t-53 -130zM526 1151q0 -72 49.5 -122t120.5 -50q37 0 68 14.5t53.5 38t35.5 54 t13 63.5q0 70 -49 120t-121 50t-121 -49t-49 -119z" />
<glyph unicode="9" d="M41 1006q0 123 45 228t130 184t206 124t272 45q154 0 275 -45t206 -123t130 -181t45 -220q0 -131 -58.5 -283.5t-179.5 -300.5l-358 -434h-465l438 504h-8q-57 -35 -94 -42t-66 -7q-113 0 -208 43t-163.5 117.5t-107.5 175t-39 215.5zM440 1014q0 -53 20.5 -99.5 t55.5 -81t81 -55t99 -20.5t99.5 20.5t81 55t55 81t20.5 99.5t-20.5 99t-55 81t-80.5 55.5t-100 20.5q-53 0 -99 -20.5t-81 -55.5t-55.5 -81t-20.5 -99z" />
<glyph unicode=":" horiz-adv-x="696" d="M109 197q0 49 18 93t51 76.5t77 51t93 18.5t93 -18.5t77 -51t51.5 -76.5t18.5 -93t-18.5 -93.5t-51.5 -77t-77 -51t-93 -18.5t-93 18.5t-77 51t-51 77t-18 93.5zM109 887q0 49 18 93t51 77t77 51t93 18t93 -18t77 -51t51.5 -77t18.5 -93t-18.5 -93t-51.5 -77t-77 -51.5 t-93 -18.5t-93 18.5t-77 51.5t-51 77t-18 93z" />
<glyph unicode=";" horiz-adv-x="696" d="M-25 -287l267 678h348l-377 -678h-238zM162 887q0 49 18.5 93t51 77t76.5 51t93 18t93.5 -18t77 -51t51 -77t18.5 -93t-18.5 -93t-51 -77t-76.5 -51.5t-94 -18.5q-49 0 -93 18.5t-76.5 51.5t-51 77t-18.5 93z" />
<glyph unicode="&#x3c;" d="M195 602v365l1003 555v-437l-541 -303l541 -305v-432z" />
<glyph unicode="=" d="M147 436v262h1096v-262h-1096zM147 846v264h1096v-264h-1096z" />
<glyph unicode="&#x3e;" d="M195 45v436l538 303l-538 306v432l1003 -555v-367z" />
<glyph unicode="?" horiz-adv-x="1265" d="M78 1108q0 104 42 191t116.5 152t176 100.5t220.5 35.5q121 0 220 -40t171 -107.5t111 -155.5t39 -182q0 -307 -371 -436v-148h-377v400q25 -4 45.5 -7.5t38.5 -3.5q55 0 104.5 15.5t85 42t56 64.5t20.5 83q0 61 -41 106.5t-110 45.5q-63 0 -101.5 -43t-38.5 -113h-407z M385 197q0 49 18.5 93t51 76.5t76.5 51t94 18.5q49 0 93 -18.5t76.5 -51t51 -76.5t18.5 -93t-18.5 -93.5t-51 -77t-76.5 -51t-93 -18.5t-93.5 18.5t-77 51t-51 77t-18.5 93.5z" />
<glyph unicode="@" horiz-adv-x="1798" d="M82 453q0 174 65.5 323.5t180 260t269.5 174t335 63.5q166 0 309 -55.5t248.5 -151.5t166 -226t60.5 -278q0 -125 -31.5 -228.5t-90 -178t-140.5 -115.5t-184 -41q-55 0 -99.5 28.5t-76.5 77.5q-68 -68 -129.5 -85t-114.5 -17q-66 0 -136.5 32t-129 89t-97 137t-38.5 176 q0 94 36.5 173t96 135.5t136.5 87t156 30.5q88 0 154 -33.5t96 -89.5l19 105h188l-61 -510q-6 -49 -6 -98q0 -20 10 -32.5t24 -12.5q47 0 87 30.5t70 81.5t46.5 116.5t16.5 135.5q0 117 -45.5 213t-124 163.5t-185 104.5t-229.5 37q-141 0 -261 -48t-207 -131t-136 -197.5 t-49 -245.5q0 -147 53 -264t144 -197t213 -122t259 -42q80 0 141.5 5t116 19.5t104.5 39t109 63.5l88 -172q-125 -78 -261 -116t-296 -38q-201 0 -361.5 65.5t-273 178.5t-174 262.5t-61.5 317.5zM672 440q0 -41 16.5 -79.5t44 -67.5t65.5 -46.5t79 -17.5t78.5 17.5 t65.5 46.5t44 67.5t16 79.5t-16 79t-44 67.5t-65.5 47t-78.5 17.5t-79 -17.5t-65.5 -47t-44 -67.5t-16.5 -79z" />
<glyph unicode="A" horiz-adv-x="1642" d="M14 0l588 1544h438l588 -1544h-428l-92 268h-573l-93 -268h-428zM641 573h360l-180 514z" />
<glyph unicode="B" horiz-adv-x="1417" d="M162 0v1544h598q213 0 323.5 -102.5t110.5 -294.5q0 -117 -42 -193.5t-128 -130.5q86 -16 146.5 -50t98.5 -83t54 -110.5t16 -130.5q0 -109 -37.5 -193t-106.5 -141.5t-167 -86t-221 -28.5h-645zM563 311h88q152 0 217.5 39t65.5 125t-65.5 125t-217.5 39h-88v-328z M563 938h74q188 0 188 149q0 150 -188 150h-74v-299z" />
<glyph unicode="C" horiz-adv-x="1366" d="M92 776q0 178 66.5 326.5t178.5 256t259 168t309 60.5q92 0 181.5 -19.5t187.5 -60.5v-479q-139 170 -344 170q-90 0 -167 -32.5t-132.5 -89t-87 -134.5t-31.5 -168q0 -92 31.5 -170t88 -135t132.5 -90t164 -33q193 0 346 164v-475l-41 -15q-92 -33 -172 -48t-158 -15 q-160 0 -306 60.5t-258 170t-179.5 260t-67.5 328.5z" />
<glyph unicode="D" horiz-adv-x="1609" d="M162 0v1544h594q158 0 296 -63.5t241.5 -169t163 -245.5t59.5 -294q0 -152 -58.5 -292t-162 -246.5t-242 -170t-297.5 -63.5h-594zM563 340h92q104 0 186.5 33t138.5 90t86 136t30 173q0 92 -31 172t-87 137.5t-138 90t-185 32.5h-92v-864z" />
<glyph unicode="E" horiz-adv-x="1167" d="M162 0v1544h878v-340h-477v-258h451v-340h-451v-266h477v-340h-878z" />
<glyph unicode="F" horiz-adv-x="1124" d="M162 0v1544h885v-340h-484v-258h441v-340h-441v-606h-401z" />
<glyph unicode="G" horiz-adv-x="1802" d="M92 774q0 180 58.5 330.5t166 257t259 166t337.5 59.5q242 0 424.5 -104.5t288.5 -323.5l-381 -158q-53 127 -138 182.5t-194 55.5q-90 0 -163.5 -34t-126 -96t-82 -150.5t-29.5 -196.5q0 -98 25.5 -182t77 -145.5t127 -95.5t176.5 -34q59 0 114 13.5t99.5 43t73 76.5 t38.5 115h-330v311h797q0 -123 -10 -223t-41 -186q-43 -121 -117 -214.5t-173 -155.5t-218 -95t-250 -33q-180 0 -328.5 59.5t-255 167t-166 258t-59.5 332.5z" />
<glyph unicode="H" horiz-adv-x="1705" d="M162 0v1544h401v-596h580v596h401v-1544h-401v637h-580v-637h-401z" />
<glyph unicode="I" horiz-adv-x="724" d="M162 0v1544h401v-1544h-401z" />
<glyph unicode="J" horiz-adv-x="1085" d="M14 184l262 269q10 -70 45 -111t87 -41q113 0 112 178v1065h402v-1071q0 -68 -7.5 -125t-23.5 -98q-27 -66 -73 -120t-107.5 -92t-136 -59.5t-156.5 -21.5q-248 0 -404 227z" />
<glyph unicode="K" horiz-adv-x="1622" d="M162 0v1544h401v-637l490 637h495l-612 -731l670 -813h-521l-522 670v-670h-401z" />
<glyph unicode="L" horiz-adv-x="1089" d="M162 0v1544h401v-1204h481v-340h-882z" />
<glyph unicode="M" horiz-adv-x="2119" d="M92 0l262 1544h398l309 -823l307 823h397l263 -1544h-400l-133 889l-365 -889h-159l-346 889l-133 -889h-400z" />
<glyph unicode="N" horiz-adv-x="1865" d="M162 0v1544h401l742 -944v944h399v-1544h-399l-742 944v-944h-401z" />
<glyph unicode="O" horiz-adv-x="1894" d="M92 772q0 172 63.5 320.5t176 259t269.5 173t345 62.5q186 0 344 -62.5t271.5 -173t177 -259t63.5 -320.5t-63.5 -320.5t-177 -259t-271 -173t-344.5 -62.5q-188 0 -345 62.5t-269.5 173t-176 259t-63.5 320.5zM512 772q0 -92 35 -170t94 -135t138 -89t167 -32t167 32 t139.5 89t95 135t34.5 170t-34.5 170t-95 135.5t-139.5 89t-167 31.5t-167 -31.5t-138 -89t-94 -135.5t-35 -170z" />
<glyph unicode="P" horiz-adv-x="1388" d="M162 0v1544h639q260 0 398 -135t138 -381t-138 -381t-398 -135h-238v-512h-401zM563 836h133q221 0 222 192q0 193 -222 193h-133v-385z" />
<glyph unicode="Q" horiz-adv-x="1894" d="M92 772q0 172 63.5 320.5t176 259t269.5 173t345 62.5q186 0 344 -62.5t271.5 -173t177 -259t63.5 -320.5q0 -160 -52 -297t-151 -244l263 -274l-369 -57l-141 145q-90 -41 -191.5 -64.5t-214.5 -23.5q-188 0 -345 62.5t-269.5 173t-176 259t-63.5 320.5zM512 772 q0 -92 35 -170t94 -135t138 -89t167 -32q53 0 107 12l-230 242l379 47l107 -112q73 101 73 233q0 96 -34.5 174t-95 135.5t-139.5 89t-167 31.5t-167 -31.5t-138 -89t-94 -135.5t-35 -170z" />
<glyph unicode="R" horiz-adv-x="1452" d="M162 0v1544h624q129 0 225.5 -38t159 -103.5t94 -151.5t31.5 -184q0 -176 -85 -285.5t-250 -148.5l485 -633h-500l-383 594v-594h-401zM563 854h76q119 0 182.5 49t63.5 141t-63.5 141.5t-182.5 49.5h-76v-381z" />
<glyph unicode="S" horiz-adv-x="1323" d="M92 131l172 324q90 -80 178 -119t174 -39q98 0 146.5 45t48.5 102q0 35 -12.5 60.5t-41 47t-74.5 40t-112 41.5q-78 25 -152.5 54.5t-133 78.5t-94 124t-35.5 189q0 115 37.5 208t106.5 159.5t168 103.5t222 37q115 0 240 -31.5t239 -93.5l-159 -313q-66 53 -131.5 78.5 t-126.5 25.5q-78 0 -127.5 -36.5t-49.5 -96.5q0 -41 25 -67.5t65 -46t90 -34t99 -30.5q197 -66 288 -175.5t91 -285.5q0 -119 -40 -215t-117 -164.5t-188.5 -106.5t-252.5 -38q-293 0 -543 174z" />
<glyph unicode="T" horiz-adv-x="1093" d="M16 1204v340h1061v-340h-329v-1204h-402v1204h-330z" />
<glyph unicode="U" horiz-adv-x="1669" d="M162 649v895h401v-839q0 -68 5 -138.5t31 -128t81 -93.5t156 -36q100 0 154 36t81 93.5t32 128t5 138.5v839h399v-895q0 -360 -164.5 -526t-506.5 -166t-508 166t-166 526z" />
<glyph unicode="V" horiz-adv-x="1619" d="M0 1544h436l373 -940l375 940h436l-651 -1544h-320z" />
<glyph unicode="W" horiz-adv-x="2347" d="M0 1544h420l266 -997l328 997h319l328 -997l266 997h420l-461 -1544h-409l-303 895l-304 -895h-409z" />
<glyph unicode="X" horiz-adv-x="1646" d="M0 0l604 823l-481 721h495l209 -399l258 399h496l-510 -721l576 -823h-490l-309 504l-363 -504h-485z" />
<glyph unicode="Y" horiz-adv-x="1480" d="M-29 1544h480l286 -422l285 422h479l-565 -803v-741h-401v741z" />
<glyph unicode="Z" horiz-adv-x="1462" d="M31 0l731 1204h-608v340h1278l-727 -1204h647v-340h-1321z" />
<glyph unicode="[" horiz-adv-x="780" d="M184 -354v2054h502v-217h-209v-1618h209v-219h-502z" />
<glyph unicode="\" horiz-adv-x="1146" d="M12 1700h295l842 -2054h-293z" />
<glyph unicode="]" horiz-adv-x="780" d="M92 -137h209v1618h-209v219h504v-2054h-504v217z" />
<glyph unicode="^" horiz-adv-x="1157" d="M14 780l324 776h483l324 -776h-383l-182 480l-183 -480h-383z" />
<glyph unicode="_" horiz-adv-x="1157" d="M0 -111h1157v-256h-1157v256z" />
<glyph unicode="`" horiz-adv-x="1157" d="M223 1520l236 170l293 -359l-172 -127z" />
<glyph unicode="a" horiz-adv-x="1435" d="M86 528q0 113 39 214.5t108.5 177t166 119.5t212.5 44q197 0 326 -137v105h373v-1051h-373v117q-119 -150 -322 -150q-115 0 -211 42t-167.5 118t-111.5 178.5t-40 222.5zM471 528q0 -51 18.5 -95t50 -76.5t75.5 -51t96 -18.5q49 0 93 18.5t75.5 51t51 75.5t19.5 92 t-19.5 93.5t-51 77t-75.5 51t-93 18.5q-51 0 -95.5 -18.5t-76 -51t-50 -75t-18.5 -91.5z" />
<glyph unicode="b" horiz-adv-x="1435" d="M127 0v1700h371v-754q131 137 327 137q117 0 214.5 -44t166 -118.5t107.5 -176t39 -216.5q0 -117 -40 -219t-112 -178t-169 -120t-210 -44q-205 0 -323 150v-117h-371zM487 524q0 -49 18.5 -92t51.5 -74.5t77 -51t93 -19.5t92 18.5t75 51t51.5 75.5t19.5 90 q0 49 -18.5 93t-51.5 77t-76 52.5t-94 19.5q-49 0 -92 -18.5t-75 -51t-51.5 -77t-19.5 -93.5z" />
<glyph unicode="c" horiz-adv-x="1003" d="M86 518q0 125 45 228.5t123 178t185.5 116.5t230.5 42q135 0 250 -57v-315q-95 65 -192 65h-3q-53 0 -99 -18.5t-81 -52t-54.5 -79.5t-19.5 -104q0 -55 19.5 -101t53.5 -80t81 -52.5t100 -18.5q104 0 195 72v-315q-137 -59 -261 -60q-115 0 -218 39t-182 111.5t-126 174 t-47 226.5z" />
<glyph unicode="d" horiz-adv-x="1435" d="M86 528q0 113 38 214.5t107.5 177t167 119.5t213.5 44q197 0 326 -137v754h373v-1700h-373v117q-119 -150 -322 -150q-115 0 -211 43t-167.5 119t-111.5 178.5t-40 220.5zM471 528q0 -51 18.5 -95t50 -76.5t75.5 -51t96 -18.5q49 0 93 18.5t75.5 51t51 75.5t19.5 92 t-19.5 93.5t-51 77t-75.5 51t-93 18.5t-93.5 -18.5t-76 -51t-51 -75t-19.5 -91.5z" />
<glyph unicode="e" horiz-adv-x="1325" d="M86 520q0 131 41 236.5t116.5 179.5t183.5 114t243 40q133 0 239.5 -40t180 -116t112.5 -185.5t39 -246.5v-39h-780q0 -240 225 -240q121 0 182 99h359q-109 -360 -543 -361q-133 0 -243.5 40t-189.5 113.5t-122 176t-43 229.5zM471 678h424q-18 78 -75.5 125t-139.5 47 q-86 0 -140.5 -45t-68.5 -127z" />
<glyph unicode="f" horiz-adv-x="800" d="M25 741v310h133v157q0 131 24 209q20 66 65.5 122t106 97t130 63.5t137.5 22.5q47 0 87 -10t80 -29v-323q-37 18 -68.5 27.5t-66.5 9.5q-23 0 -46 -7.5t-44 -29.5q-20 -23 -27.5 -65t-7.5 -113v-131h260v-310h-260v-741h-370v741h-133z" />
<glyph unicode="g" horiz-adv-x="1427" d="M86 510q0 121 41 224.5t111.5 180t168 120.5t211.5 44q186 0 314 -139v111h371v-979q0 -88 -10.5 -158t-28.5 -123q-25 -68 -77 -126t-126 -101t-167 -67.5t-202 -24.5q-123 0 -225 30.5t-179 85t-126 127t-66 158.5h418q39 -104 176 -104q117 0 179.5 65.5t62.5 181.5 v101q-41 -39 -79 -64.5t-77 -42t-82 -23.5t-94 -7q-113 0 -207 38.5t-162.5 108.5t-106.5 167t-38 216zM471 530q0 -51 18.5 -95t50 -76.5t75.5 -51t96 -18.5q49 0 93 18.5t75.5 51t51 76.5t19.5 93q0 51 -19.5 94.5t-52 76t-76.5 51t-91 18.5q-49 0 -92.5 -19.5t-76 -51 t-52 -75t-19.5 -92.5z" />
<glyph unicode="h" horiz-adv-x="1359" d="M127 0v1700h371v-782q76 92 153.5 123.5t182.5 31.5q199 0 300 -109.5t101 -295.5v-668h-371v530q0 80 -12 129.5t-41 75.5q-49 43 -119 43q-94 0 -144 -56t-50 -161v-561h-371z" />
<glyph unicode="i" horiz-adv-x="624" d="M102 1454q0 43 16.5 81t45.5 66.5t66.5 45t80.5 16.5t81 -16.5t66.5 -45t45 -66.5t16.5 -81t-16.5 -81t-45 -66.5t-66.5 -45t-81 -16.5t-80.5 16.5t-66.5 45t-45.5 66.5t-16.5 81zM127 0v1051h371v-1051h-371z" />
<glyph unicode="j" horiz-adv-x="624" d="M102 1454q0 43 16.5 81t45.5 66.5t66.5 45t80.5 16.5t81 -16.5t66.5 -45t45 -66.5t16.5 -81t-16.5 -81t-45 -66.5t-66.5 -45t-81 -16.5t-80.5 16.5t-66.5 45t-45.5 66.5t-16.5 81zM127 -524v1575h371v-1575h-371z" />
<glyph unicode="k" horiz-adv-x="1429" d="M127 0v1700h371v-1028l389 379h508l-527 -486l557 -565h-520l-407 428v-428h-371z" />
<glyph unicode="l" horiz-adv-x="624" d="M127 0v1700h371v-1700h-371z" />
<glyph unicode="m" horiz-adv-x="2031" d="M127 0v1051h371v-129q152 145 340 145q233 0 356 -197q125 199 356 199q74 0 139.5 -21.5t112.5 -67.5t75 -120t28 -178v-682h-371v518q0 80 -11.5 131t-33 80t-50 39t-61.5 10q-178 0 -178 -260v-518h-371v518q0 80 -10 132t-29.5 83t-50 42t-71.5 11q-35 0 -66 -10 t-54.5 -39.5t-36.5 -82t-13 -136.5v-518h-371z" />
<glyph unicode="n" horiz-adv-x="1359" d="M127 0v1051h371v-133q76 92 153.5 123.5t182.5 31.5q111 0 189.5 -36t133.5 -101q45 -53 61.5 -118.5t16.5 -149.5v-668h-371v530q0 78 -11 126.5t-40 76.5q-25 25 -55.5 35t-65.5 10q-94 0 -144 -56t-50 -161v-561h-371z" />
<glyph unicode="o" horiz-adv-x="1433" d="M86 535q0 117 47 218t131 176t200 118t253 43q135 0 250.5 -42t200.5 -117t132.5 -178.5t47.5 -228.5t-48.5 -228t-132.5 -178t-201.5 -116t-254.5 -41q-135 0 -250 41t-198 117t-130 181.5t-47 234.5zM477 530q0 -53 19.5 -97t51.5 -76.5t76 -51t93 -18.5t93 18.5t76 51 t51 76.5t19 95q0 49 -19 93.5t-51 77t-76 51t-93 18.5t-93 -18.5t-76 -51t-51.5 -76t-19.5 -92.5z" />
<glyph unicode="p" horiz-adv-x="1435" d="M127 -524v1575h371v-117q118 149 320 149h3q113 0 210 -44t169 -119.5t112 -178t40 -219.5t-40 -217t-111 -176t-167 -119t-209 -43q-197 0 -327 135v-626h-371zM487 524q0 -49 18.5 -92t51.5 -74.5t77 -51t93 -19.5t92 18.5t75 51t51.5 75.5t19.5 90q0 49 -17.5 93 t-50.5 77t-77 52.5t-95 19.5q-49 0 -92 -18.5t-75 -51t-51.5 -77t-19.5 -93.5z" />
<glyph unicode="q" horiz-adv-x="1435" d="M86 522q0 119 41 221.5t112.5 178t168 118.5t208.5 43q203 0 322 -149v117h373v-1575h-373v626q-129 -135 -326 -135q-113 0 -209 43t-166.5 119t-110.5 177.5t-40 215.5zM471 528q0 -51 18.5 -95t50 -76.5t75.5 -51t96 -18.5q49 0 93 18.5t75.5 51t51 76.5t19.5 93 t-19.5 92.5t-51 76t-75.5 51t-93 18.5t-93.5 -18.5t-76 -51t-51 -75t-19.5 -91.5z" />
<glyph unicode="r" horiz-adv-x="952" d="M127 0v1051h371v-172q59 94 145 144t201 50h31.5t39.5 -4v-354q-74 37 -159 37q-129 0 -193.5 -77t-64.5 -224v-451h-371z" />
<glyph unicode="s" horiz-adv-x="1042" d="M61 82l136 262q156 -106 295 -106q51 0 83.5 22.5t32.5 56.5q0 20 -5 34t-21.5 25t-48 20.5t-82.5 19.5q-172 35 -241 103.5t-69 189.5q0 88 33 158.5t94.5 119.5t148.5 76t193 27q174 0 338 -68l-125 -242q-102 53 -200 54q-51 0 -83 -20.5t-32 -55.5q0 -18 5 -29.5 t22.5 -22t51.5 -18.5t89 -20q154 -31 229.5 -110t75.5 -202q0 -92 -37 -165.5t-102.5 -124t-157.5 -78t-203 -27.5q-213 0 -420 121z" />
<glyph unicode="t" horiz-adv-x="763" d="M47 741v310h123v315h371v-315h211v-310h-211v-741h-371v741h-123z" />
<glyph unicode="u" horiz-adv-x="1370" d="M127 387v664h371v-592q0 -195 188 -195t188 195v592h371v-664q0 -213 -140 -319.5t-419 -106.5t-419 106.5t-140 319.5z" />
<glyph unicode="v" horiz-adv-x="1335" d="M0 1051h418l250 -539l254 539h413l-547 -1051h-247z" />
<glyph unicode="w" horiz-adv-x="2099" d="M0 1051h414l252 -553l262 553h233l262 -570l265 570h411l-549 -1051h-247l-263 575l-249 -575h-252z" />
<glyph unicode="x" horiz-adv-x="1519" d="M0 0l524 569l-426 482h484l180 -217l184 217h484l-437 -482l527 -569h-492l-268 311l-271 -311h-489z" />
<glyph unicode="y" horiz-adv-x="1409" d="M0 1051h430l281 -539l272 539h426l-844 -1575h-415l358 667z" />
<glyph unicode="z" horiz-adv-x="1206" d="M45 0l496 741h-428v310h1046l-491 -742h442v-309h-1065z" />
<glyph unicode="{" horiz-adv-x="888" d="M186 557v252q127 25 127 176v387q0 180 71 257t241 77h170v-266h-41q-45 0 -74 -4t-44 -18.5t-20.5 -41t-5.5 -69.5v-342q0 -66 -6 -108t-21.5 -73.5t-43 -57t-68.5 -54.5q41 -27 67.5 -54.5t43 -61.5t22.5 -77t6 -100v-342q0 -41 5.5 -67.5t19.5 -41t42 -19.5t75 -5h43 v-266h-177q-82 0 -139 17t-94 57t-54.5 103.5t-17.5 155.5v387q0 96 -28.5 140.5t-98.5 58.5z" />
<glyph unicode="|" horiz-adv-x="1157" d="M358 -385v1929h443v-1929h-443z" />
<glyph unicode="}" horiz-adv-x="888" d="M92 -96h41q45 0 74 4t44 18.5t20 41t5 69.5v344q0 61 7.5 104t23 76t42 58.5t67.5 52.5q-41 27 -69 54.5t-43 61t-21.5 76.5t-6.5 101v344q0 43 -6 69.5t-21.5 41t-43 18.5t-70.5 4h-43v264h176q158 0 231.5 -75t73.5 -259v-387q0 -96 29 -140t98 -59v-251 q-127 -29 -127 -177v-387q0 -180 -70.5 -256.5t-238.5 -76.5h-172v266z" />
<glyph unicode="~" horiz-adv-x="1544" d="M209 1407l47 102q49 109 123 163t180 54q39 0 100.5 -18t126 -39.5t123 -39t90.5 -17.5q29 0 51.5 5t42 18.5t37 37t37.5 58.5l168 -99q-41 -86 -81 -144t-83 -94t-93 -52.5t-109 -16.5q-35 0 -95.5 18.5t-125 40t-122 40t-83.5 18.5q-29 0 -51.5 -6t-42 -22.5t-38 -44.5 t-38.5 -71z" />
<glyph unicode="&#xa2;" d="M283 774q0 115 35.5 210t103 168t163 118t216.5 61v191h188v-203q57 -12 121 -37v-332q-94 78 -188 78q-53 0 -98.5 -19.5t-79 -54t-53 -81t-19.5 -99.5q0 -55 20.5 -100t54 -79t78.5 -52.5t97 -18.5q109 0 188 80v-334q-35 -12 -65.5 -20t-55.5 -12v-215h-188v200 q-111 8 -205 53.5t-164 119t-109.5 171t-39.5 207.5z" />
<glyph unicode="&#xa3;" d="M47 0q25 102 65 172t87 112t98 60t102 18q20 47 21 78q0 76 -43 154h-305v194h168q-59 109 -60 244q0 117 42 216.5t121 171t192.5 112.5t257.5 41q285 0 419 -140.5t134 -441.5h-406q4 25 7 43.5t3 30.5q0 37 -14 71.5t-40 61.5t-60.5 43t-75.5 16q-86 0 -139.5 -62 t-53.5 -157q0 -70 17.5 -124t50.5 -126h346v-194h-289q4 -37 7 -68.5t3 -60.5t-5 -59.5t-15 -65.5l55 -16q100 -29 168 -45.5t105 -16.5q47 0 74.5 26.5t27.5 73.5h248q-10 -184 -110.5 -289.5t-272.5 -105.5q-43 0 -112.5 17.5t-145.5 37t-149.5 37t-125.5 17.5 q-104 0 -131 -76h-266z" />
<glyph unicode="&#xa5;" d="M8 1544h457l233 -444l224 444h460l-340 -538h226v-242h-377l-14 -23v-123h391v-241h-391v-377h-381v377h-371v241h371v123l-13 23h-358v242h211z" />
<glyph unicode="&#xa8;" horiz-adv-x="1157" d="M117 1415q0 41 15 77t43 63.5t64.5 43t77.5 15.5t78 -16.5t63.5 -44t42 -63.5t15.5 -77q0 -84 -57.5 -142.5t-141.5 -58.5q-86 0 -143 58.5t-57 144.5zM641 1415q0 39 16.5 76t44 63.5t63.5 43t77 16.5t76.5 -16.5t63.5 -44t44 -63.5t16 -77t-16 -77t-44 -63.5t-63.5 -44 t-76.5 -16.5t-78 15.5t-64.5 43t-43 64.5t-15.5 80z" />
<glyph unicode="&#xa9;" horiz-adv-x="1951" d="M154 766q0 170 64.5 320.5t176 262t261 176t319.5 64.5t320.5 -64.5t262 -176t176 -262t64.5 -320.5t-64.5 -319.5t-176 -261t-262 -176t-320.5 -64.5t-319.5 64.5t-261 176t-176 261t-64.5 319.5zM313 766q0 -137 52.5 -257t142.5 -210t210 -142.5t257 -52.5t257 52.5 t210 142.5t142 210t52 257t-52 257t-142 210t-210 142t-257 52t-257 -52t-210 -142t-142.5 -210t-52.5 -257zM492 766q0 100 39.5 188t108.5 155t161 104.5t194 37.5q57 0 119 -11t115 -34l10 -4v-330l-27 31q-41 47 -93 69.5t-109 22.5q-100 0 -164 -64.5t-64 -164.5 t63.5 -163.5t164.5 -63.5q57 0 106 22.5t96 67.5l27 24v-321l-37 -13q-59 -20 -108.5 -28t-96.5 -8q-104 0 -195 37.5t-161 102t-109.5 153t-39.5 190.5z" />
<glyph unicode="&#xab;" horiz-adv-x="1230" d="M66 528l352 502l205 -139l-258 -363l264 -356l-211 -147zM575 528l351 502l204 -139l-256 -363l263 -356l-211 -147z" />
<glyph unicode="&#xad;" horiz-adv-x="587" d="M0 393v309h588v-309h-588z" />
<glyph unicode="&#xae;" horiz-adv-x="1951" d="M154 766q0 170 64.5 320.5t176 262t261 176t319.5 64.5t320.5 -64.5t262 -176t176 -262t64.5 -320.5t-64.5 -319.5t-176 -261t-262 -176t-320.5 -64.5t-319.5 64.5t-261 176t-176 261t-64.5 319.5zM313 766q0 -137 52.5 -257t142.5 -210t210 -142.5t257 -52.5t257 52.5 t210 142.5t142 210t52 257t-52 257t-142 210t-210 142t-257 52t-257 -52t-210 -142t-142.5 -210t-52.5 -257zM596 309v926h403q147 0 239.5 -79t92.5 -214q0 -203 -196 -260l305 -373h-350l-213 309v-309h-281zM877 834h30q137 0 137 96q0 94 -137 94h-30v-190z" />
<glyph unicode="&#xb4;" horiz-adv-x="1157" d="M408 1331l292 359l236 -170l-356 -316z" />
<glyph unicode="&#xb8;" horiz-adv-x="1157" d="M430 -446l270 329l213 -137l-315 -299z" />
<glyph unicode="&#xbb;" horiz-adv-x="1230" d="M92 172l264 356l-258 363l205 139l352 -502l-352 -503zM602 172l264 356l-258 363l205 139l352 -502l-352 -503z" />
<glyph unicode="&#x2c6;" horiz-adv-x="911" d="M0 1384l453 340l458 -340l-163 -180l-295 230l-295 -230z" />
<glyph unicode="&#x2da;" horiz-adv-x="636" d="M0 1454q0 111 85 174.5t234 63.5q154 0 236 -64.5t82 -175.5t-82 -175.5t-236 -64.5q-152 0 -235.5 63.5t-83.5 178.5zM197 1454q0 -94 120 -94q125 0 125 92t-125 92q-55 0 -87.5 -24.5t-32.5 -65.5z" />
<glyph unicode="&#x2dc;" horiz-adv-x="823" d="M0 1214v23q0 63 16.5 118.5t47 95.5t71.5 63.5t90 23.5q23 0 75 -13.5t130 -41.5q47 -16 79 -25.5t54 -9.5q37 0 50.5 18.5t27.5 71.5h182q-18 -174 -73.5 -249t-159.5 -75q-43 0 -93.5 12.5t-109.5 35.5l-84 30q-25 10 -53 11q-37 0 -51.5 -17.5t-24.5 -71.5h-174z" />
<glyph unicode="&#x401;" horiz-adv-x="1167" d="M137 1894q0 39 15.5 75t43 63.5t64.5 43t78 15.5t77 -15.5t63.5 -42t44 -63.5t16.5 -78q0 -43 -16.5 -78.5t-43 -63.5t-63.5 -43t-76 -15q-88 0 -145.5 59t-57.5 143zM162 0v1544h878v-340h-477v-258h451v-340h-451v-266h477v-340h-878zM694 1894q0 39 15.5 75t43 63.5 t64.5 43t78 15.5t77 -15.5t63.5 -42t44 -63.5t16.5 -78q0 -86 -58.5 -143t-142.5 -57q-86 0 -143.5 58t-57.5 144z" />
<glyph unicode="&#x402;" horiz-adv-x="1769" d="M16 1204v340h1059v-340h-409v-137q72 10 129 13t112 3q360 0 559 -176q49 -43 83 -92t56.5 -109.5t32 -136t9.5 -174.5l-2 -395q-2 -63 -6.5 -107.5t-15.5 -78t-28.5 -59t-44.5 -52.5q-47 -47 -133 -80t-200 -33l-142 295q98 0 134 59.5t36 151.5v242q0 70 -2 116 t-10 76.5t-21.5 53t-33.5 45.5q-94 100 -306 100q-47 0 -94 -4t-112 -14v-711h-402v1204h-248z" />
<glyph unicode="&#x403;" horiz-adv-x="1087" d="M162 0v1544h882v-340h-481v-1204h-401zM438 1812l334 320l215 -195l-393 -270z" />
<glyph unicode="&#x404;" horiz-adv-x="1366" d="M92 762q0 180 63.5 331.5t174 261t260 171t321.5 61.5q88 0 170 -17.5t191 -62.5v-479q-139 170 -346 170q-135 0 -230.5 -63.5t-146.5 -173.5h493v-347h-505q20 -57 57 -106t87 -86t112.5 -57.5t132.5 -20.5q100 0 184 40t162 122v-471q-72 -25 -122 -40t-88 -23.5 t-73 -11.5t-76 -3q-170 0 -319.5 62.5t-261 171t-176 255t-64.5 316.5z" />
<glyph unicode="&#x405;" horiz-adv-x="1323" d="M92 131l172 324q90 -80 178 -119t174 -39q98 0 146.5 45t48.5 102q0 35 -12.5 60.5t-41 47t-74.5 40t-112 41.5q-78 25 -152.5 54.5t-133 78.5t-94 124t-35.5 189q0 115 37.5 208t106.5 159.5t168 103.5t222 37q115 0 240 -31.5t239 -93.5l-159 -313q-66 53 -131.5 78.5 t-126.5 25.5q-78 0 -127.5 -36.5t-49.5 -96.5q0 -41 25 -67.5t65 -46t90 -34t99 -30.5q197 -66 288 -175.5t91 -285.5q0 -119 -40 -215t-117 -164.5t-188.5 -106.5t-252.5 -38q-293 0 -543 174z" />
<glyph unicode="&#x406;" horiz-adv-x="724" d="M162 0v1544h401v-1544h-401z" />
<glyph unicode="&#x407;" horiz-adv-x="724" d="M-76 1890q0 84 57.5 142.5t141.5 58.5t142.5 -58.5t58.5 -142.5t-58.5 -141t-142.5 -57t-141.5 57t-57.5 141zM162 0v1544h401v-1544h-401zM403 1890q0 84 57.5 142.5t141.5 58.5t142.5 -58.5t58.5 -142.5t-58.5 -141t-142.5 -57t-141.5 57t-57.5 141z" />
<glyph unicode="&#x408;" horiz-adv-x="1085" d="M14 184l262 269q10 -70 45 -111t87 -41q113 0 112 178v1065h402v-1071q0 -68 -7.5 -125t-23.5 -98q-27 -66 -73 -120t-107.5 -92t-136 -59.5t-156.5 -21.5q-248 0 -404 227z" />
<glyph unicode="&#x409;" horiz-adv-x="2299" d="M76 -43v348q8 -2 18 -2q117 0 117 178v1063h1264v-514h251q256 0 389.5 -131t133.5 -387q0 -238 -140.5 -375t-396.5 -137h-639v1204h-463v-729q0 -115 -34.5 -209t-100 -163.5t-159 -107.5t-210.5 -38h-30zM1475 324h135q219 0 219 192q0 100 -52.5 146.5t-166.5 46.5 h-135v-385z" />
<glyph unicode="&#x40a;" horiz-adv-x="2369" d="M162 0v1544h401v-514h533v514h401v-514h299q256 0 389 -131t133 -387q0 -117 -34.5 -211t-102 -160.5t-168 -103.5t-231.5 -37h-686v709h-533v-709h-401zM1497 324h182q219 0 219 192q0 100 -52 146.5t-169 46.5h-180v-385z" />
<glyph unicode="&#x40b;" horiz-adv-x="1769" d="M16 1204v340h1059v-340h-409v-137q72 10 129 13t112 3q360 0 559 -176q49 -43 83 -92t55.5 -109.5t32 -136t10.5 -174.5v-395h-402v338q0 70 -2 116t-10 76.5t-21.5 53t-33.5 45.5q-94 100 -306 100q-47 0 -94 -4t-112 -14v-711h-402v1204h-248z" />
<glyph unicode="&#x40c;" horiz-adv-x="1622" d="M162 0v1544h401v-637l490 637h495l-612 -731l670 -813h-521l-522 670v-670h-401zM678 1812l334 320l215 -195l-393 -270z" />
<glyph unicode="&#x40e;" horiz-adv-x="1558" d="M6 1544h477l314 -581l346 581h444l-1005 -1544h-404l377 598zM401 2048h261q31 -137 180 -137q152 0 182 137h260q-8 -166 -127 -262q-113 -94 -315 -94q-197 0 -316 94q-115 94 -125 262z" />
<glyph unicode="&#x40f;" horiz-adv-x="1705" d="M162 0v1544h401v-1204h580v1204h401v-1544h-491v-289h-400v289h-491z" />
<glyph unicode="&#x410;" horiz-adv-x="1644" d="M14 0l588 1544h438l588 -1544h-428l-92 268h-573l-93 -268h-428zM641 573h360l-180 514z" />
<glyph unicode="&#x411;" horiz-adv-x="1435" d="M162 0v1544h934v-340h-533v-174h299q256 0 389 -131t133 -387q0 -117 -34.5 -211t-102 -160.5t-168 -103.5t-231.5 -37h-686zM563 324h182q219 0 220 192q0 100 -52.5 146.5t-169.5 46.5h-180v-385z" />
<glyph unicode="&#x412;" horiz-adv-x="1417" d="M162 0v1544h598q213 0 323.5 -102.5t110.5 -294.5q0 -117 -42 -193.5t-128 -130.5q86 -16 146.5 -50t98.5 -83t54 -110.5t16 -130.5q0 -109 -37.5 -193t-106.5 -141.5t-167 -86t-221 -28.5h-645zM563 311h88q152 0 217.5 39t65.5 125t-65.5 125t-217.5 39h-88v-328z M563 938h74q188 0 188 149q0 150 -188 150h-74v-299z" />
<glyph unicode="&#x413;" horiz-adv-x="1087" d="M162 0v1544h882v-340h-481v-1204h-401z" />
<glyph unicode="&#x414;" horiz-adv-x="1867" d="M78 -289v629h141q78 0 101.5 46t23.5 134v1024h1266v-1204h194v-629h-399v289h-928v-289h-399zM729 340h479v864h-463v-688q0 -59 -3 -100t-13 -76z" />
<glyph unicode="&#x415;" horiz-adv-x="1167" d="M162 0v1544h878v-340h-477v-258h451v-340h-451v-266h477v-340h-878z" />
<glyph unicode="&#x416;" horiz-adv-x="2609" d="M0 0l719 811l-662 733h496l551 -665v665h401v-665l551 665h496l-662 -733l719 -811h-520l-584 688v-688h-401v688l-584 -688h-520z" />
<glyph unicode="&#x417;" horiz-adv-x="1216" d="M170 -39v391q45 -10 87 -14t93 -4q152 0 232 43t80 115q0 37 -15.5 61.5t-51.5 39.5t-96.5 22.5t-148.5 7.5h-28.5t-36.5 -2v317q37 0 91 1t104 12.5t87 40t37 85.5q0 59 -62.5 91t-179.5 32q-49 0 -94 -4t-98 -14v391q55 8 113.5 12t117.5 4q301 0 466 -112.5 t165 -311.5q0 -115 -59.5 -200.5t-188.5 -145.5q156 -47 233 -143t77 -238q0 -111 -47.5 -201t-136.5 -155.5t-217 -101t-292 -35.5q-72 0 -126 4t-105 12z" />
<glyph unicode="&#x418;" horiz-adv-x="1865" d="M162 0v1544h401v-946l740 946h401v-1544h-401v944l-740 -944h-401z" />
<glyph unicode="&#x419;" horiz-adv-x="1865" d="M162 0v1544h401v-946l740 946h401v-1544h-401v944l-740 -944h-401zM506 2048h260q31 -137 180 -137q152 0 182 137h261q-8 -166 -127 -262q-113 -94 -316 -94q-197 0 -315 94q-115 94 -125 262z" />
<glyph unicode="&#x41a;" horiz-adv-x="1622" d="M162 0v1544h401v-637l490 637h495l-612 -731l670 -813h-521l-522 670v-670h-401z" />
<glyph unicode="&#x41b;" horiz-adv-x="1636" d="M76 -43v348q8 -2 18 -2q117 0 117 178v1063h1264v-1544h-402v1204h-463v-729q0 -115 -34.5 -209t-100 -163.5t-159 -107.5t-210.5 -38h-30z" />
<glyph unicode="&#x41c;" horiz-adv-x="2119" d="M92 0l262 1544h398l309 -823l307 823h397l263 -1544h-400l-133 889l-365 -889h-159l-346 889l-133 -889h-400z" />
<glyph unicode="&#x41d;" horiz-adv-x="1705" d="M162 0v1544h401v-596h580v596h401v-1544h-401v637h-580v-637h-401z" />
<glyph unicode="&#x41e;" horiz-adv-x="1894" d="M92 772q0 172 63.5 320.5t176 259t269.5 173t345 62.5q186 0 344 -62.5t271.5 -173t177 -259t63.5 -320.5t-63.5 -320.5t-177 -259t-271 -173t-344.5 -62.5q-188 0 -345 62.5t-269.5 173t-176 259t-63.5 320.5zM512 772q0 -92 35 -170t94 -135t138 -89t167 -32t167 32 t139.5 89t95 135t34.5 170t-34.5 170t-95 135.5t-139.5 89t-167 31.5t-167 -31.5t-138 -89t-94 -135.5t-35 -170z" />
<glyph unicode="&#x41f;" horiz-adv-x="1705" d="M162 0v1544h1382v-1544h-401v1204h-580v-1204h-401z" />
<glyph unicode="&#x420;" horiz-adv-x="1388" d="M162 0v1544h639q260 0 398 -135t138 -381t-138 -381t-398 -135h-238v-512h-401zM563 836h133q221 0 222 192q0 193 -222 193h-133v-385z" />
<glyph unicode="&#x421;" horiz-adv-x="1366" d="M92 776q0 178 66.5 326.5t178.5 256t259 168t309 60.5q92 0 181.5 -19.5t187.5 -60.5v-479q-139 170 -344 170q-90 0 -167 -32.5t-132.5 -89t-87 -134.5t-31.5 -168q0 -92 31.5 -170t88 -135t132.5 -90t164 -33q193 0 346 164v-475l-41 -15q-92 -33 -172 -48t-158 -15 q-160 0 -306 60.5t-258 170t-179.5 260t-67.5 328.5z" />
<glyph unicode="&#x422;" horiz-adv-x="1093" d="M16 1204v340h1061v-340h-329v-1204h-402v1204h-330z" />
<glyph unicode="&#x423;" horiz-adv-x="1558" d="M6 1544h477l314 -581l346 581h444l-1005 -1544h-404l377 598z" />
<glyph unicode="&#x424;" horiz-adv-x="2080" d="M92 770q0 150 53.5 281t152.5 229t239.5 160.5t316.5 77.5v149h373v-149q174 -14 315 -77t240.5 -161t153 -229t53.5 -281q0 -145 -54.5 -275t-155 -230.5t-240.5 -163t-312 -74.5v-150h-373v150q-174 12 -315.5 74.5t-240.5 161.5t-152.5 229.5t-53.5 277.5zM498 772 q0 -76 26.5 -142.5t72.5 -115.5t109.5 -77.5t135.5 -28.5h12v729h-12q-72 0 -135.5 -29t-109.5 -78t-72.5 -115.5t-26.5 -142.5zM1227 408h10q72 0 135.5 28.5t110.5 77.5t73.5 115.5t26.5 142.5t-26.5 142.5t-73.5 115.5t-110.5 78t-135.5 29h-10v-729z" />
<glyph unicode="&#x425;" horiz-adv-x="1646" d="M0 0l604 823l-481 721h495l209 -399l258 399h496l-510 -721l576 -823h-490l-309 504l-363 -504h-485z" />
<glyph unicode="&#x426;" horiz-adv-x="1802" d="M162 0v1544h401v-1204h580v1204h401v-1204h195v-629h-400v289h-1177z" />
<glyph unicode="&#x427;" horiz-adv-x="1705" d="M162 1100v444h401v-387q0 -111 17.5 -185.5t60.5 -120.5t114.5 -65.5t180.5 -19.5q47 0 94 4t113 14v760h401v-1544h-401v428q-72 -10 -129.5 -13t-112.5 -3q-176 0 -314 38.5t-232.5 122.5t-143.5 214.5t-49 312.5z" />
<glyph unicode="&#x428;" horiz-adv-x="2344" d="M162 0v1544h401v-1204h410v1204h399v-1204h410v1204h401v-1544h-2021z" />
<glyph unicode="&#x429;" horiz-adv-x="2441" d="M162 0v1544h401v-1204h410v1204h399v-1204h410v1204h401v-1204h195v-629h-400v289h-1816z" />
<glyph unicode="&#x42a;" horiz-adv-x="1701" d="M31 1204v340h798v-514h299q256 0 389.5 -131t133.5 -387q0 -117 -35 -211t-102.5 -160.5t-168 -103.5t-231.5 -37h-686v1204h-397zM829 324h183q219 0 219 192q0 100 -52.5 146.5t-168.5 46.5h-181v-385z" />
<glyph unicode="&#x42b;" horiz-adv-x="2138" d="M162 0v1544h401v-514h299q256 0 389 -131t133 -387q0 -117 -34.5 -211t-102 -160.5t-168 -103.5t-231.5 -37h-686zM563 324h182q219 0 220 192q0 100 -52.5 146.5t-169.5 46.5h-180v-385zM1575 0v1544h401v-1544h-401z" />
<glyph unicode="&#x42c;" horiz-adv-x="1435" d="M162 0v1544h401v-514h299q256 0 389 -131t133 -387q0 -117 -34.5 -211t-102 -160.5t-168 -103.5t-231.5 -37h-686zM563 324h182q219 0 220 192q0 100 -52.5 146.5t-169.5 46.5h-180v-385z" />
<glyph unicode="&#x42d;" horiz-adv-x="1366" d="M92 37v471q78 -82 163 -122t185 -40q139 0 242.5 74t144.5 190h-503v340h491q-49 111 -144.5 174.5t-230.5 63.5q-109 0 -193.5 -42t-154.5 -128v479q109 45 191 62.5t170 17.5q172 0 321.5 -61.5t260 -171t174 -259t63.5 -327.5q0 -170 -64.5 -315.5t-177 -253 t-262.5 -169t-317 -61.5q-41 0 -75 3t-73 11.5t-89 23.5t-122 40z" />
<glyph unicode="&#x42e;" horiz-adv-x="2545" d="M162 0v1544h401v-618h193q25 143 100.5 265t188 210t254 138t298.5 50q184 0 341 -63.5t271.5 -175t179.5 -261t65 -321.5t-65 -322.5t-179.5 -261t-273 -175t-345.5 -64.5q-152 0 -289 46t-246.5 131t-185 202.5t-106.5 261.5h-201v-586h-401zM1163 772q0 -90 34 -170 t93.5 -139.5t138 -94t170.5 -34.5q88 0 167 33.5t138.5 92t94.5 138.5t35 170t-35 169t-95.5 137.5t-139 92t-167.5 33.5q-86 0 -164.5 -33.5t-139 -92t-95.5 -136.5t-35 -166z" />
<glyph unicode="&#x42f;" horiz-adv-x="1452" d="M6 0l486 633q-166 39 -251 148.5t-85 285.5q0 100 33.5 187t98 151.5t160 101.5t218.5 37h624v-1544h-399v594l-383 -594h-502zM567 1044q0 -92 64.5 -141t181.5 -49h78v381h-78q-117 0 -181.5 -49t-64.5 -142z" />
<glyph unicode="&#x430;" horiz-adv-x="1435" d="M86 528q0 113 39 214.5t108.5 177t166 119.5t212.5 44q197 0 326 -137v105h373v-1051h-373v117q-119 -150 -322 -150q-115 0 -211 42t-167.5 118t-111.5 178.5t-40 222.5zM471 528q0 -51 18.5 -95t50 -76.5t75.5 -51t96 -18.5q49 0 93 18.5t75.5 51t51 75.5t19.5 92 t-19.5 93.5t-51 77t-75.5 51t-93 18.5q-51 0 -95.5 -18.5t-76 -51t-50 -75t-18.5 -91.5z" />
<glyph unicode="&#x431;" horiz-adv-x="1433" d="M86 637q0 287 114.5 488.5t331.5 293.5q27 12 43.5 17.5t36 10.5t49 14t87.5 28q90 29 151.5 51.5t104.5 46t71.5 50t54.5 63.5v-365q-29 -27 -52 -44t-56 -31.5t-82 -31t-129 -40.5q-70 -23 -113 -37t-69.5 -26.5t-42 -26t-29.5 -31.5l-12 -16q47 18 95 28.5t110 10.5 q125 0 234.5 -43t191 -119t128 -180.5t46.5 -229.5q0 -121 -46.5 -223t-130 -176t-204.5 -116t-271 -42q-137 0 -249.5 39t-193.5 121t-125 210t-44 306zM477 528q0 -49 18.5 -93t50.5 -76.5t76 -52t95 -19.5q49 0 93 19.5t77 52t51 76.5t18 93t-18 93.5t-51 77t-77 51 t-93 18.5t-93 -18.5t-76 -51t-51.5 -75.5t-19.5 -95z" />
<glyph unicode="&#x432;" horiz-adv-x="1167" d="M127 0v1051h557q156 0 236.5 -71t80.5 -204q0 -78 -24.5 -127t-83.5 -84q215 -43 215 -260q0 -145 -109.5 -225t-302.5 -80h-569zM473 258h203q43 0 65.5 24.5t22.5 65.5q0 88 -88 88h-203v-178zM473 645h176q59 0 60 76q0 76 -60 76h-176v-152z" />
<glyph unicode="&#x433;" horiz-adv-x="825" d="M127 0v1051h657v-310h-288v-741h-369z" />
<glyph unicode="&#x434;" horiz-adv-x="1490" d="M109 -215v524h51q55 0 75.5 37t20.5 115v590h1024v-742h125v-524h-371v215h-555v-215h-370zM621 309h288v432h-280v-315q0 -41 -2 -65.5t-6 -51.5z" />
<glyph unicode="&#x435;" horiz-adv-x="1325" d="M86 520q0 131 41 236.5t116.5 179.5t183.5 114t243 40q133 0 239.5 -40t180 -116t112.5 -185.5t39 -246.5v-39h-780q0 -240 225 -240q121 0 182 99h359q-109 -360 -543 -361q-133 0 -243.5 40t-189.5 113.5t-122 176t-43 229.5zM471 678h424q-18 78 -75.5 125t-139.5 47 q-86 0 -140.5 -45t-68.5 -127z" />
<glyph unicode="&#x436;" horiz-adv-x="1980" d="M16 0l494 547l-438 504h397l338 -430v430h371v-430l335 430h398l-438 -504l491 -547h-420l-366 426v-426h-371v426l-371 -426h-420z" />
<glyph unicode="&#x437;" horiz-adv-x="903" d="M109 -12v299q29 -10 66.5 -15.5t72.5 -5.5q74 0 126 21.5t52 52.5q0 35 -59.5 60.5t-155.5 25.5h-16v217q111 2 161 20.5t50 53.5q0 33 -35 49t-95 16q-43 0 -88 -7t-79 -17v307q51 10 101 17.5t107 7.5q100 0 186.5 -23t149 -63.5t97 -96t34.5 -119.5q0 -70 -42 -126 t-134 -103q111 -35 161 -95.5t50 -152.5q0 -76 -35.5 -140.5t-102.5 -110.5t-159 -72.5t-203 -26.5q-53 0 -108 6t-102 21z" />
<glyph unicode="&#x438;" horiz-adv-x="1435" d="M127 0v1051h371v-588l440 588h371v-1051h-371v586l-442 -586h-369z" />
<glyph unicode="&#x439;" horiz-adv-x="1435" d="M127 0v1051h371v-588l440 588h371v-1051h-371v586l-442 -586h-369zM309 1608h238q20 -168 168 -168q143 0 168 168h235q-18 -387 -403 -387q-387 0 -406 387z" />
<glyph unicode="&#x43a;" horiz-adv-x="1257" d="M127 0v1051h371v-422l307 422h395l-416 -504l471 -547h-424l-333 420v-420h-371z" />
<glyph unicode="&#x43b;" horiz-adv-x="1351" d="M78 -41v346q6 -2 18 -2q27 0 47.5 4t32.5 17.5t18.5 40t6.5 69.5v617h1024v-1051h-371v741h-283v-348q0 -113 -33.5 -194.5t-93 -135t-144.5 -79t-185 -25.5h-37z" />
<glyph unicode="&#x43c;" horiz-adv-x="1515" d="M35 0l201 1051h305l217 -568l217 568h305l201 -1051h-316l-100 618l-227 -618h-160l-227 618l-103 -618h-313z" />
<glyph unicode="&#x43d;" horiz-adv-x="1372" d="M127 0v1051h371v-363h376v363h371v-1051h-371v383h-376v-383h-371z" />
<glyph unicode="&#x43e;" horiz-adv-x="1433" d="M86 535q0 117 47 218t131 176t200 118t253 43q135 0 250.5 -42t200.5 -117t132.5 -178.5t47.5 -228.5t-48.5 -228t-132.5 -178t-201.5 -116t-254.5 -41q-135 0 -250 41t-198 117t-130 181.5t-47 234.5zM477 530q0 -53 19.5 -97t51.5 -76.5t76 -51t93 -18.5t93 18.5t76 51 t51 76.5t19 95q0 49 -19 93.5t-51 77t-76 51t-93 18.5t-93 -18.5t-76 -51t-51.5 -76t-19.5 -92.5z" />
<glyph unicode="&#x43f;" horiz-adv-x="1372" d="M127 0v1051h1118v-1051h-371v741h-376v-741h-371z" />
<glyph unicode="&#x440;" horiz-adv-x="1435" d="M127 -524v1575h371v-117q119 150 323 149q113 0 210 -44t169 -119.5t112 -178t40 -219.5t-40 -217t-111 -176t-167 -119t-209 -43q-197 0 -327 135v-626h-371zM487 524q0 -49 18.5 -92t51.5 -74.5t77 -51t93 -19.5t92 18.5t75 51t51.5 75.5t19.5 90q0 49 -17.5 93 t-50.5 77t-77 52.5t-95 19.5q-49 0 -92 -18.5t-75 -51t-51.5 -77t-19.5 -93.5z" />
<glyph unicode="&#x441;" horiz-adv-x="1003" d="M86 518q0 125 45 228.5t123 178t185.5 116.5t230.5 42q135 0 250 -57v-315q-96 66 -195 65q-53 0 -99 -18.5t-81 -52t-54.5 -79.5t-19.5 -104q0 -55 19.5 -101t53.5 -80t81 -52.5t100 -18.5q104 0 195 72v-315q-137 -59 -261 -60q-115 0 -218 39t-182 111.5t-126 174 t-47 226.5z" />
<glyph unicode="&#x442;" horiz-adv-x="942" d="M41 741v310h862v-310h-246v-741h-370v741h-246z" />
<glyph unicode="&#x443;" horiz-adv-x="1409" d="M0 1051h430l281 -539l272 539h426l-844 -1575h-415l358 667z" />
<glyph unicode="&#x444;" horiz-adv-x="1742" d="M86 522q0 125 35 228.5t98.5 177t151.5 114.5t194 41q37 0 70 -3t65 -13v414h340v-414q35 10 67 13t67 3q106 0 195 -41t152.5 -114.5t99.5 -177t36 -226.5q0 -125 -36 -227t-99.5 -176t-152.5 -114t-195 -40q-35 0 -67 2t-67 11v-504h-340v504q-33 -8 -64.5 -10.5 t-70.5 -2.5q-106 0 -194 41t-151.5 114t-98.5 175t-35 225zM453 524q0 -47 17 -89t49 -75.5t78 -53t103 -19.5v477q-57 0 -103 -19.5t-78 -53.5t-49 -77t-17 -90zM1040 287q57 0 103.5 19.5t78 53t49 75.5t17.5 89t-17.5 90t-49 77t-77.5 53.5t-104 19.5v-477z" />
<glyph unicode="&#x445;" horiz-adv-x="1519" d="M0 0l524 569l-426 482h484l180 -217l184 217h484l-437 -482l527 -569h-492l-268 311l-271 -311h-489z" />
<glyph unicode="&#x446;" horiz-adv-x="1454" d="M127 0v1051h371v-742h376v742h371v-742h125v-524h-371v215h-872z" />
<glyph unicode="&#x447;" horiz-adv-x="1257" d="M78 803v248h371v-260q0 -80 13 -130.5t37.5 -77t57.5 -35.5t72 -9q80 0 131 51v461h370v-1051h-370v250q-37 -8 -75 -13.5t-81 -5.5q-139 0 -239.5 38t-164 111t-93 179.5t-29.5 243.5z" />
<glyph unicode="&#x448;" horiz-adv-x="1857" d="M127 0v1051h371v-742h245v742h371v-742h246v742h371v-1051h-1604z" />
<glyph unicode="&#x449;" horiz-adv-x="1939" d="M127 0v1051h371v-742h245v742h371v-742h246v742h371v-742h124v-524h-370v215h-1358z" />
<glyph unicode="&#x44a;" horiz-adv-x="1298" d="M16 741v310h619v-312h215q188 0 286.5 -87t98.5 -253q0 -90 -26.5 -162.5t-79 -126t-128 -82t-176.5 -28.5h-563v741h-246zM633 266h143q111 0 111 105q0 100 -111 100h-143v-205z" />
<glyph unicode="&#x44b;" horiz-adv-x="1746" d="M123 0v1051h371v-312h217q188 0 286.5 -87t98.5 -253q0 -90 -27 -162.5t-79 -126t-128 -82t-176 -28.5h-563zM494 266h143q111 0 111 105q0 100 -111 100h-143v-205zM1249 0v1051h371v-1051h-371z" />
<glyph unicode="&#x44c;" horiz-adv-x="1165" d="M129 0v1051h371v-312h217q188 0 286.5 -87t98.5 -253q0 -90 -26.5 -162.5t-79 -126t-128 -82t-176.5 -28.5h-563zM500 266h143q111 0 111 105q0 100 -111 100h-143v-205z" />
<glyph unicode="&#x44d;" horiz-adv-x="1003" d="M86 25v315q90 -72 193 -72q78 0 142 40t93 112h-242v215h238q-33 68 -93.5 103.5t-137.5 35.5q-53 0 -97.5 -15.5t-95.5 -49.5v315q63 31 119.5 44t130.5 13q125 0 232.5 -43t185 -118.5t122 -179t44.5 -224.5q0 -117 -44.5 -217t-122 -174t-183 -117t-226.5 -43 q-70 0 -130 15.5t-128 44.5z" />
<glyph unicode="&#x44e;" horiz-adv-x="1998" d="M127 0v1051h371v-363h174q27 90 84 165t137 127t179 81t210 29q137 0 254 -43t201 -119t131 -179.5t47 -224.5q0 -125 -48 -228t-132 -178t-202 -116t-255 -41q-115 0 -216 29.5t-181 85t-135.5 133.5t-77.5 174h-170v-383h-371zM1042 530q0 -53 19.5 -97t51.5 -76.5 t76 -51t93 -18.5t93 18.5t77 51t51.5 76.5t18.5 95q0 49 -19.5 93.5t-51.5 77t-76 51t-93 18.5t-93 -18.5t-76 -51t-51.5 -76t-19.5 -92.5z" />
<glyph unicode="&#x44f;" horiz-adv-x="1210" d="M78 0l252 356q-90 29 -139.5 113t-49.5 207q0 78 26 146.5t77 118.5t126.5 80t176.5 30h536v-1051h-370v328h-64l-180 -328h-391zM483 670q0 -53 31 -83t84 -30h115v223h-115q-53 0 -84 -29.5t-31 -80.5z" />
<glyph unicode="&#x451;" horiz-adv-x="1325" d="M86 520q0 131 41 236.5t116.5 179.5t183.5 114t243 40q133 0 239.5 -40t180 -116t112.5 -185.5t39 -246.5v-39h-780q0 -240 225 -240q121 0 182 99h359q-109 -360 -543 -361q-133 0 -243.5 40t-189.5 113.5t-122 176t-43 229.5zM219 1415q0 41 15 77t43 63.5t64.5 43 t77.5 15.5t78 -16.5t63.5 -44t42 -63.5t15.5 -77q0 -84 -57.5 -142.5t-141.5 -58.5q-86 0 -143 58.5t-57 144.5zM471 678h424q-18 78 -75.5 125t-139.5 47q-86 0 -140.5 -45t-68.5 -127zM743 1415q0 39 16.5 76t44 63.5t63.5 43t77 16.5t76.5 -16.5t63.5 -44t44 -63.5 t16 -77t-16 -77t-44 -63.5t-63.5 -44t-76.5 -16.5t-78 15.5t-64.5 43t-43 64.5t-15.5 80z" />
<glyph unicode="&#x452;" horiz-adv-x="1384" d="M16 1210v279h138v209h370v-209h469v-279h-469v-292q72 86 149 120.5t185 34.5q88 0 162 -24.5t127 -74.5t83 -126t30 -180v-787q0 -186 -100.5 -295.5t-299.5 -109.5l-141 295q39 0 70.5 9t54 34.5t35 70.5t12.5 115v549q0 49 -7 91t-26.5 72.5t-53.5 48t-85 17.5 q-86 0 -140.5 -50t-54.5 -165v-563h-370v1210h-138z" />
<glyph unicode="&#x453;" horiz-adv-x="825" d="M127 0v1051h657v-310h-288v-741h-369zM281 1331l292 359l236 -170l-356 -316z" />
<glyph unicode="&#x454;" horiz-adv-x="1003" d="M86 516q0 121 44 224.5t122 179t184.5 118.5t233.5 43q72 0 128 -13t122 -44v-315q-53 35 -97.5 50t-97.5 15q-78 0 -138.5 -36t-92.5 -103h237v-215h-242q29 -72 93.5 -112t142.5 -40q55 0 101 17.5t94 54.5v-315q-70 -29 -130.5 -44.5t-130.5 -15.5q-121 0 -226 42 t-182 117t-121 175t-44 217z" />
<glyph unicode="&#x455;" horiz-adv-x="1042" d="M61 82l136 262q156 -106 295 -106q51 0 83.5 22.5t32.5 56.5q0 20 -5 34t-21.5 25t-48 20.5t-82.5 19.5q-172 35 -241 103.5t-69 189.5q0 88 33 158.5t94.5 119.5t148.5 76t193 27q174 0 338 -68l-125 -242q-102 53 -200 54q-51 0 -83 -20.5t-32 -55.5q0 -18 5 -29.5 t22.5 -22t51.5 -18.5t89 -20q154 -31 229.5 -110t75.5 -202q0 -92 -37 -165.5t-102.5 -124t-157.5 -78t-203 -27.5q-213 0 -420 121z" />
<glyph unicode="&#x456;" horiz-adv-x="624" d="M102 1454q0 43 16.5 81t45.5 66.5t66.5 45t80.5 16.5t81 -16.5t66.5 -45t45 -66.5t16.5 -81t-16.5 -81t-45 -66.5t-66.5 -45t-81 -16.5t-80.5 16.5t-66.5 45t-45.5 66.5t-16.5 81zM127 0v1051h371v-1051h-371z" />
<glyph unicode="&#x457;" horiz-adv-x="624" d="M-121 1415q0 39 16.5 76t44 63.5t63.5 43t77 16.5q39 0 76 -16.5t63.5 -44t43 -64.5t16.5 -76q0 -41 -16.5 -77t-43 -63.5t-63.5 -44t-76 -16.5q-41 0 -77 15.5t-63.5 43t-44 64.5t-16.5 80zM127 0v1051h371v-1051h-371zM356 1415q0 39 16.5 76t44 63.5t63.5 43t77 16.5 t77 -16.5t63.5 -44t44 -63.5t16.5 -77t-16.5 -77t-43 -63.5t-63.5 -44t-76 -16.5q-86 0 -144.5 58.5t-58.5 144.5z" />
<glyph unicode="&#x458;" horiz-adv-x="624" d="M102 1454q0 43 16.5 81t45.5 66.5t66.5 45t80.5 16.5t81 -16.5t66.5 -45t45 -66.5t16.5 -81t-16.5 -81t-45 -66.5t-66.5 -45t-81 -16.5t-80.5 16.5t-66.5 45t-45.5 66.5t-16.5 81zM127 -524v1575h371v-1575h-371z" />
<glyph unicode="&#x459;" horiz-adv-x="1822" d="M78 -41v346q8 -2 18 -2q104 0 105 92v656h997v-312h176q188 0 286.5 -87t98.5 -253q0 -184 -104.5 -291.5t-302.5 -107.5h-525v741h-256v-348q0 -113 -33.5 -194.5t-93 -135t-144.5 -79t-185 -25.5h-37zM1198 266h105q109 0 108 105q0 100 -108 100h-105v-205z" />
<glyph unicode="&#x45a;" horiz-adv-x="1869" d="M127 0v1051h371v-312h336v312h370v-312h217q188 0 286.5 -87t98.5 -253q0 -90 -26.5 -162.5t-78.5 -126t-128 -82t-176 -28.5h-563v449h-336v-449h-371zM1204 266h144q111 0 110 105q0 100 -110 100h-144v-205z" />
<glyph unicode="&#x45b;" horiz-adv-x="1402" d="M31 1210v279h137v207h371v-207h469v-279h-469v-292q72 88 149.5 121.5t185.5 33.5q86 0 160 -23.5t128.5 -73.5t84 -127t29.5 -181v-668h-371v530q0 143 -40 195.5t-130 52.5q-102 0 -149 -59.5t-47 -155.5v-563h-371v1210h-137z" />
<glyph unicode="&#x45c;" horiz-adv-x="1257" d="M127 0v1051h371v-422l307 422h395l-416 -504l471 -547h-424l-333 420v-420h-371zM477 1331l293 359l236 -170l-357 -316z" />
<glyph unicode="&#x45e;" horiz-adv-x="1409" d="M0 1051h430l281 -539l272 539h426l-844 -1575h-415l358 667zM319 1608h238q20 -168 168 -168q143 0 167 168h236q-18 -387 -403 -387q-387 0 -406 387z" />
<glyph unicode="&#x45f;" horiz-adv-x="1372" d="M127 0v1051h371v-742h376v742h371v-1051h-375v-215h-368v215h-375z" />
<glyph unicode="&#x490;" horiz-adv-x="1099" d="M162 0v1544h481v156h401v-496h-481v-1204h-401z" />
<glyph unicode="&#x491;" horiz-adv-x="905" d="M127 0v1051h369v170h370v-480h-368v-741h-371z" />
<glyph unicode="&#x2000;" horiz-adv-x="1066" />
<glyph unicode="&#x2001;" horiz-adv-x="2132" />
<glyph unicode="&#x2002;" horiz-adv-x="1066" />
<glyph unicode="&#x2003;" horiz-adv-x="2132" />
<glyph unicode="&#x2004;" horiz-adv-x="710" />
<glyph unicode="&#x2005;" horiz-adv-x="533" />
<glyph unicode="&#x2006;" horiz-adv-x="355" />
<glyph unicode="&#x2007;" horiz-adv-x="355" />
<glyph unicode="&#x2008;" horiz-adv-x="266" />
<glyph unicode="&#x2009;" horiz-adv-x="426" />
<glyph unicode="&#x200a;" horiz-adv-x="118" />
<glyph unicode="&#x2010;" horiz-adv-x="587" d="M0 393v309h588v-309h-588z" />
<glyph unicode="&#x2011;" horiz-adv-x="587" d="M0 393v309h588v-309h-588z" />
<glyph unicode="&#x2012;" horiz-adv-x="587" d="M0 393v309h588v-309h-588z" />
<glyph unicode="&#x2013;" horiz-adv-x="1390" d="M147 393v309h1096v-309h-1096z" />
<glyph unicode="&#x2014;" horiz-adv-x="1775" d="M0 393v309h1776v-309h-1776z" />
<glyph unicode="&#x2018;" horiz-adv-x="800" d="M109 864l376 680h238l-266 -680h-348z" />
<glyph unicode="&#x2019;" horiz-adv-x="800" d="M78 864l264 680h350l-377 -680h-237z" />
<glyph unicode="&#x201a;" horiz-adv-x="800" d="M78 -287l264 678h350l-377 -678h-237z" />
<glyph unicode="&#x201c;" horiz-adv-x="1325" d="M109 864l376 680h238l-266 -680h-348zM633 864l377 680h237l-266 -680h-348z" />
<glyph unicode="&#x201d;" horiz-adv-x="1325" d="M78 864l264 680h350l-377 -680h-237zM602 864l266 680h349l-377 -680h-238z" />
<glyph unicode="&#x201e;" horiz-adv-x="1325" d="M78 -287l264 678h350l-377 -678h-237zM602 -287l266 678h349l-377 -678h-238z" />
<glyph unicode="&#x2026;" horiz-adv-x="2107" d="M113 197q0 49 18.5 93t51 76.5t76.5 51t93 18.5t93 -18.5t77 -51t51.5 -76.5t18.5 -93t-18.5 -93.5t-51.5 -77t-77 -51t-93 -18.5t-93 18.5t-76.5 51t-51 77t-18.5 93.5zM815 197q0 49 18.5 93t51.5 76.5t77 51t93 18.5t93 -18.5t76.5 -51t51 -76.5t18.5 -93t-18.5 -93.5 t-51 -77t-76.5 -51t-93 -18.5t-93 18.5t-77 51t-51.5 77t-18.5 93.5zM1518 197q0 49 18 93t51 76.5t77 51t93 18.5t93 -18.5t77 -51t51.5 -76.5t18.5 -93t-18.5 -93.5t-51.5 -77t-77 -51t-93 -18.5t-93 18.5t-77 51t-51 77t-18 93.5z" />
<glyph unicode="&#x202f;" horiz-adv-x="426" />
<glyph unicode="&#x2039;" horiz-adv-x="720" d="M66 528l352 502l205 -139l-258 -363l264 -356l-211 -147z" />
<glyph unicode="&#x203a;" horiz-adv-x="720" d="M92 172l264 356l-258 363l205 139l352 -502l-352 -503z" />
<glyph unicode="&#x205f;" horiz-adv-x="533" />
<glyph unicode="&#x20ac;" d="M215 684h754v-195h-293q20 -39 60 -71.5t93.5 -57t117 -39t130.5 -14.5v-348q-176 0 -329.5 56.5t-269.5 153.5t-185.5 229t-77.5 286zM215 838q10 154 77.5 289t181.5 235t267.5 157.5t335.5 57.5v-348q-135 0 -244.5 -51.5t-160.5 -143.5h297v-196h-754z" />
<glyph unicode="&#x2122;" horiz-adv-x="1798" d="M0 1337v207h610v-207h-184v-673h-242v673h-184zM655 664l148 880h237l168 -450l176 450h240l131 -880h-242l-59 477l-197 -477h-106l-186 477l-70 -477h-240z" />
<glyph unicode="&#x25fc;" horiz-adv-x="1054" d="M0 0v1055h1055v-1055h-1055z" />
</font>
</defs>
</svg>
