<svg xmlns="http://www.w3.org/2000/svg" width="33" height="43" viewBox="0 0 33 43">
    <g fill="#FFF" fill-rule="nonzero" transform="matrix(-1 0 0 1 28.667 7)">
        <circle cx="9.969" cy="2.969" r="2.969"/>
        <path d="M19.411 13.267c.56 2.243 4.017 1.291 3.458-.953-1.018-4.09-4.09-6.404-8.03-7.065-.597 0-3.48 1.64-4.687 2.554-1.72 1.49-3.614 2.702-5.631 3.763-2.047 1.078-.234 4.173 1.81 3.097a35.823 35.823 0 0 0 5.028-3.184c.277.955.531 1.917.748 2.889a135.013 135.013 0 0 1-6.369 10.395c-1.302 1.92 1.807 3.71 3.097 1.809.863-1.272 1.7-2.563 2.517-3.862a2.411 2.411 0 0 1-.414-.891 2.12 2.12 0 0 1 .27-1.643l.107-.166c.703-1.088 1.723-1.896 2.498-2.826-.591 1.196-1.34 2.339-2.037 3.42-.536.83-.165 1.965.644 2.453 2.303 1.393 4.631 2.776 6.833 4.325 1.896 1.334 3.685-1.776 1.81-3.096-1.696-1.194-3.467-2.29-5.246-3.366.97-1.587 1.868-3.278 2.322-5.041.151-.591.02-1.09-.261-1.467-.284-1.446-.784-3.24-1.32-4.944 1.41.742 2.408 2.008 2.853 3.799z"/>
        <circle cx="3.286" cy="18.109" r="2.486"/>
    </g>
</svg>
