<svg xmlns="http://www.w3.org/2000/svg" width="38" height="38" viewBox="0 0 38 38">
    <g fill="#FFF" fill-rule="nonzero">
        <path d="M18.675 10.298c.38.257.812.434 1.262.521l.005.002a3.47 3.47 0 0 0 3.09-.945 3.474 3.474 0 0 0 .937-3.144 3.474 3.474 0 0 0-2.046-2.47 3.47 3.47 0 0 0-3.25.323 3.471 3.471 0 0 0-1.52 2.892 3.473 3.473 0 0 0 1.522 2.821zM33.21 10.975a2.13 2.13 0 0 0-.56-.074c-.442 0-.866.003-1.279.192-.067.031-.132.065-.196.103-.049.03-.08.054-.12.065h-.709c-.298 0-.592.104-.824.291-.046.037-.072.095-.131.091l-.277-.017-3.236-.202-4.444-.278c-.908-.057-1.814-.17-2.723-.17-1.36 0-1.962.417-2.195.554-.736.435-1.276 1.108-1.584 1.902l-1.223 3.153c-.413 1.062-.964 2.102-1.376 3.164l-.027.07a4.67 4.67 0 0 0-.124.38c-.199.683-.018.764-.144 1.128l-.202.655c-.412 1.334-.825 2.668-1.242 4l-.28.898-.192.202c-.135.136-.27.27-.407.404-.53.52-1.068 1.03-1.608 1.539-.952.897-1.913 1.786-2.875 2.674-.173.16-.347.317-.518.478a1.64 1.64 0 0 0-.494 1.466c.19 1.108 1.474 1.698 2.437 1.123.216-.129.414-.297.616-.446l1.458-1.08c1.127-.838 2.252-1.68 3.36-2.543.424-.33.85-.657 1.25-1.015.581-.523 1.095-1.756 1.29-2.196.312-.709.617-1.421.926-2.132 1.154.735 4.641 3.003 4.641 3.003s.634 1.93.843 2.626c.192.639.379 1.28.564 1.92.123.422.218.862.37 1.275.391 1.049 1.759 1.394 2.6.656.388-.34.595-.854.55-1.368-.04-.45-.132-.9-.2-1.348-.21-1.368-.42-2.737-.682-4.096-.116-.607-.22-1.242-.452-1.817-.118-.29-.212-.525-1.545-1.644l-2.82-2.315 1.336-3.444.56.536c.37.353.884.457 1.37.322l.927-.258c.178-.05.355-.009.539-.045.145-.029.289-.067.433-.1l.293-.074a2.15 2.15 0 0 0 1.267.078c.417-.097.815-.196 1.163-.463a2.126 2.126 0 0 0 .478-2.823 2.12 2.12 0 0 0-1.227-.882c-.447-.117-.867-.046-1.307.056a2.376 2.376 0 0 0-.668.25 2.104 2.104 0 0 0-.484.39c-.17.035-.54.122-.644.146-.08.019-.158.04-.234.07-.07.027-.086.067-.128.01l-.863-1.17 2.785-.175 3.956-.247.399-.025c.07-.004.086.042.145.09.232.188.526.29.824.29h.725a2.005 2.005 0 0 0 .3.17c.41.188.838.195 1.28.192a2.139 2.139 0 0 0 2.1-1.835 2.14 2.14 0 0 0-1.542-2.33z"/>
    </g>
</svg>
