<svg xmlns="http://www.w3.org/2000/svg" width="32" height="38" viewBox="0 0 32 38">
    <g fill="#FFF" fill-rule="nonzero">
        <path d="M18.999 4.03a2.657 2.657 0 1 1 0 5.315 2.657 2.657 0 0 1 0-5.315z"/>
        <path d="M8.307 23.58a1.493 1.493 0 1 0-1.61 2.515l4.294 2.75a1.494 1.494 0 0 0 1.986-.344l5.252-6.79 4.08 5.264.597 7.252a1.493 1.493 0 1 0 2.976-.246l-.633-7.692a1.495 1.495 0 0 0-.308-.793l-3.327-5.035.269-6.835s.075-.393.09-.877c.422-.495.979-1.188 1.722-2.163 1.113-1.46 2.138-2.89 2.148-2.904a1.018 1.018 0 0 0-1.656-1.186c-1.113 1.556-2.41 3.278-3.354 4.44-1.2-.14-2.89-.143-3.883.043-.354.066-.576.22-.718.395a.975.975 0 0 0-.096.114c-1.768 2.47-3.997 5.359-4.545 5.761a1.018 1.018 0 0 0 .932 1.811c.276-.135.74-.36 3.121-3.482l.255-.336-.125 3.77.023.006-4.346 6.576-3.144-2.014z"/>
        <path d="M18.16 31.388a2.342 2.342 0 1 1 0 4.685 2.342 2.342 0 0 1 0-4.685z"/>
    </g>
</svg>
