<svg xmlns="http://www.w3.org/2000/svg" width="37" height="43" viewBox="0 0 37 43">
    <g fill="#FFF" fill-rule="nonzero">
        <path d="M8.279 10.197c.118.08.25.133.396.157.036.007.075.005.112.007 0 .37.085.836.468 1.097a.98.98 0 0 0 .397.158c.562.096 1.343-.215 2.41-.95 2.966-2.047 3.357-2.577 3.702-3.044l.113-.15c.306-.387.298-1.026-.02-1.454a1.172 1.172 0 0 0-.736-.448 1.286 1.286 0 0 0-.24-.814c-.176-.236-.703-.737-1.807-.3-.033.012-.058.034-.084.054A3.248 3.248 0 0 0 8.046 6.7a3.225 3.225 0 0 0 .128 1.59.359.359 0 0 0-.305.278c-.028.12-.25 1.179.41 1.628zm1.388.657c-.134-.09-.159-.368-.142-.608.085-.029.175-.06.267-.1a3.208 3.208 0 0 0 1.2.333c-.959.547-1.267.414-1.325.375zm4.416-3.126a2.863 2.863 0 0 1-.233.736c-.496.39-1.192.901-2.204 1.6l-.059.038a2.857 2.857 0 0 1-1.363-.166c.263-.143.548-.317.861-.533 1.698-1.171 2.55-1.844 3.035-2.294.009.203-.001.41-.037.619zm.36.061a3.21 3.21 0 0 0 .01-1.016c.146-.159.242-.29.334-.413l.06-.081c.165-.001.323.04.422.175.132.176.126.448.033.565a7.962 7.962 0 0 0-.127.168c-.145.198-.31.42-.783.83.02-.075.039-.15.051-.228zm-.15-2.597c.09.122.112.288.088.418-.094.024-.191.055-.296.095a3.293 3.293 0 0 0-.46-.657c.243-.056.518-.058.668.144zm-.557.612c.036.063.06.133.092.2a.349.349 0 0 0 .016.188c.014.037.038.066.06.095-.369.403-1.12 1.056-3.236 2.515-.53.366-.924.576-1.217.694a2.89 2.89 0 0 1-.466-.474l4.75-3.218zM9.018 9.598c-.014.008-.025.019-.038.029-.176.02-.263-.017-.29-.035-.123-.084-.154-.33-.144-.556.134.204.294.393.472.562zM27.253 31.661l-4.406-11.787c.145-.727-.098-1.541-.732-1.956l-1.017-2.722c.793-.006 1.652-.512 1.786-1.333.314-1.933.414-4.54-1.688-5.543-2.02-.962-4.305.092-6.118 1.04a1.81 1.81 0 0 0-.607.497 2.872 2.872 0 0 0-1.276.99 1.886 1.886 0 0 0-.723.633c-1.877 2.694-.96 5.113 1.011 6.877-.008.917-.07 1.84-.188 2.78-.022.178-.018.353.005.522-2.285 2.954-4.425 6.037-7.04 8.71-1.65 1.686.935 4.272 2.586 2.585 2.717-2.778 4.92-6 7.31-9.058l.037-.002c.395 2.336-.527 4.49-2.821 6.188-1.873 1.386-.053 4.563 1.845 3.158 4.22-3.124 5.762-7.543 3.973-12.138a9.683 9.683 0 0 0 1.93.199 1.77 1.77 0 0 0 1.052-.327l3.984 12.15h4.754l.914-1.463h-4.57zM18.961 17.3a26.362 26.362 0 0 0-.74-5.386 7.99 7.99 0 0 1 .448-.16c.06-.02.56-.132.574-.15.046 0 .11.002.172.005.002.011.003.02.006.028.007.1.008.2.01.3h-.222l.196.596c-.012.12-.027.24-.047.358-.134.828.134 1.65.84 2.06l.883 2.691c-.534 0-1.308-.119-2.12-.342z"/>
        <path d="M20.151 33.58h3.529v1.646H20.15V33.58z"/>
    </g>
</svg>
