<svg xmlns="http://www.w3.org/2000/svg" width="35" height="43" viewBox="0 0 35 43">
    <g fill="#FFF" fill-rule="nonzero">
        <path d="M18.687 12.537a2.316 2.316 0 1 0-1.598-4.35 2.316 2.316 0 0 0 1.598 4.35z"/>
        <path d="M29.229 10.845a1.328 1.328 0 0 0-1.84-.371l-3.427 2.278-4.058.452c-.174.02-.722.203-.842.247l-.8.294a2.538 2.538 0 0 0-.827.535l-2.949 2.723-2.41-1.99c-.077-.062-.166-.09-.25-.133l-1.345-4.129c.877-.786 1.194-2.355.678-3.939C10.52 4.856 8.87 3.64 7.475 4.096 6.077 4.552 5.461 6.506 6.1 8.46c.516 1.584 1.695 2.665 2.869 2.784l1.276 3.917c-.01.012-.026.017-.037.03a1.327 1.327 0 0 0 .179 1.868l.652.538.207.636a.795.795 0 0 0 1.003.51c.04-.013.07-.041.106-.06l1.336 1.103c.51.42 1.256.403 1.745-.048l2.167-2.002 1.69 4.603-.638 5.545-2.555 5.584a1.593 1.593 0 0 0 2.896 1.324l2.66-5.813a1.61 1.61 0 0 0 .133-.48l.485-4.217 1.999 3.008-.01 6.788c0 .879.71 1.593 1.59 1.594h.003c.878 0 1.59-.712 1.592-1.59l.01-7.27c0-.313-.092-.62-.266-.882l-3.178-4.784-2.023-5.506 2.586-.288a1.32 1.32 0 0 0 .586-.214l3.695-2.455c.611-.406.777-1.229.372-1.84z"/>
    </g>
</svg>
