<svg xmlns="http://www.w3.org/2000/svg" width="44" height="38" viewBox="0 0 44 38">
    <g fill="#FFF" fill-rule="nonzero" transform="translate(6 4)">
        <circle cx="2.896" cy="2.913" r="2.896"/>
        <circle cx="29.007" cy="5.81" r="2.896"/>
        <path d="M33.343 12.63a1.601 1.601 0 0 0-.93-1.27L28.73 9.688 25.595 8.1a1.613 1.613 0 0 0-.37-.23l-2.563-1.101a1.625 1.625 0 0 0-.305-.097l-4.737-.989a1.604 1.604 0 0 0-.656 3.14l4.58.956 1.26.54-1.68 2.23-8.968-3.283a1.833 1.833 0 0 0-2.35 1.092 1.824 1.824 0 0 0 .618 2.083l-1.568.575-1.07-4.004.59-.126A1.604 1.604 0 0 0 9.546 7.86l1.771-4.93A1.603 1.603 0 1 0 8.3 1.846L6.868 5.832l-.656.24-.238.05c-.205.045-.39.129-.554.238l-2.355.86a1.45 1.45 0 0 0-.879 1.782l3.212 10.226.039-.023.335 3.55-3.226 6.587A1.83 1.83 0 0 0 4.19 31.98c.678 0 1.329-.377 1.648-1.026l3.454-7.052c.149-.303.21-.641.179-.978l-.547-5.786c0-.01-.004-.017-.005-.026l.892-.536-.003-.008 2.742-1.005 2.732 2.391a1.828 1.828 0 0 0 2.586-.171c.666-.762.59-1.92-.171-2.586l-.002-.002 2.793 1.023a1.8 1.8 0 0 0 .348.087l.021.03c-.02.16-.03.322-.006.49l.848 6.2-.424 6.257a1.832 1.832 0 0 0 3.656.247l.438-6.441c.008-.125.004-.25-.013-.373l-.69-5.04 1.657-2.159 1.896-2.54 2.047.928.43 3.615a1.603 1.603 0 0 0 3.183-.378l-.536-4.512z"/>
    </g>
</svg>
