<svg xmlns="http://www.w3.org/2000/svg" width="39" height="43" viewBox="0 0 39 43">
    <g fill="#FFF" fill-rule="nonzero" transform="translate(4.333 5)">
        <path d="M25.529 10.718l-7.1-3.548a2.7 2.7 0 0 0-.593-.855c-.986-.975-2.991-1.171-3.93.021a61.788 61.788 0 0 0-5.62 8.474 2.796 2.796 0 0 0-.365 1.296c-.05.177-.076.372-.07.587.126 4.493-2.143 7.681-6.3 9.334-2.192.872-1.237 4.457.986 3.574 4.56-1.814 7.734-5.019 8.71-9.458 1.982 2.806 3.357 5.963 4.085 9.397.495 2.338 4.069 1.347 3.574-.985-.905-4.276-2.777-8.219-5.434-11.63 1.31-2.323 2.736-4.585 4.39-6.68.01-.013.017-.027.028-.04l6.142 3.071c1.705.855 3.207-1.703 1.497-2.558z"/>
        <circle cx="19.838" cy="3.097" r="3.097"/>
        <circle cx="28.24" cy="7.946" r="2.324"/>
    </g>
</svg>
