<svg xmlns="http://www.w3.org/2000/svg" xmlns:xlink="http://www.w3.org/1999/xlink" width="20" height="20" viewBox="0 0 20 20">
    <defs>
        <rect id="b" width="881" height="242" rx="5"/>
        <filter id="a" width="104.9%" height="117.8%" x="-2.4%" y="-8.5%" filterUnits="objectBoundingBox">
            <feOffset dy="1" in="SourceAlpha" result="shadowOffsetOuter1"/>
            <feGaussianBlur in="shadowOffsetOuter1" result="shadowBlurOuter1" stdDeviation="7"/>
            <feColorMatrix in="shadowBlurOuter1" values="0 0 0 0 0 0 0 0 0 0 0 0 0 0 0 0 0 0 0.0592447917 0"/>
        </filter>
    </defs>
    <g fill="none" fill-rule="evenodd">
        <g transform="translate(-732 -23)">
            <use fill="#000" filter="url(#a)" xlink:href="#b"/>
            <use fill="#FFF" xlink:href="#b"/>
        </g>
        <g fill-rule="nonzero">
            <path fill="#A9A9A9" d="M14.39 5.61A5.464 5.464 0 0 0 10.5 4c-1.47 0-2.85.572-3.89 1.61A5.464 5.464 0 0 0 5 9.5c0 1.47.572 2.85 1.61 3.89A5.464 5.464 0 0 0 10.5 15c1.47 0 2.85-.572 3.89-1.61A5.464 5.464 0 0 0 16 9.5c0-1.47-.572-2.85-1.61-3.89z"/>
            <path fill="#FFF" d="M12.33 10.702l-1.386-1.386v-2.85a.444.444 0 1 0-.888 0V9.5c0 .118.046.23.13.314l1.517 1.517a.443.443 0 0 0 .628 0 .444.444 0 0 0 0-.629z"/>
        </g>
    </g>
</svg>
